M48
;DRILL file {KiCad 4.0.5} date 12/07/17 20:38:31
;FORMAT={-:-/ absolute / inch / decimal}
FMAT,2
INCH,TZ
T1C0.016
T2C0.024
T3C0.031
T4C0.032
T5C0.032
T6C0.039
T7C0.040
T8C0.063
T9C0.118
%
G90
G05
M72
T1
X0.655Y1.605
X0.835Y2.64
X1.01Y2.73
X1.445Y0.67
X1.525Y1.945
T3
X0.149Y0.7753
X0.15Y0.8931
X0.15Y0.6569
X0.4242Y1.1106
X0.625Y1.15
T4
X0.175Y3.55
X0.275Y2.075
X0.275Y1.425
X0.375Y3.55
X0.375Y2.075
X0.375Y1.425
X0.475Y2.075
X0.475Y1.425
X0.525Y3.55
X0.575Y2.075
X0.575Y1.425
X0.675Y2.075
X0.675Y1.425
X0.725Y3.55
X0.775Y2.075
X0.775Y1.425
X0.875Y3.55
X0.875Y2.075
X0.875Y1.425
X0.975Y2.075
X0.975Y1.425
X1.075Y3.55
X1.075Y2.075
X1.075Y1.425
X1.175Y2.075
X1.175Y1.425
X1.225Y3.55
X1.275Y2.075
X1.275Y1.425
X1.375Y2.075
X1.375Y1.425
X1.425Y3.55
X1.475Y2.075
X1.475Y1.425
X1.55Y1.125
X1.55Y0.825
X1.575Y3.55
X1.575Y2.075
X1.575Y1.425
X1.675Y2.075
X1.675Y1.425
X1.775Y3.55
T5
X1.75Y1.025
X1.85Y1.025
T6
X0.175Y3.08
X0.175Y2.88
X0.175Y2.68
X0.175Y2.48
X0.45Y0.95
X0.45Y0.58
X0.6Y0.95
X0.6Y0.58
X0.775Y2.85
X0.825Y3.325
X0.875Y2.85
X0.875Y2.42
X0.875Y1.1
X0.875Y0.55
X0.925Y3.325
X0.975Y2.85
X0.975Y2.42
X0.975Y0.55
X1.025Y3.325
X1.075Y2.85
X1.075Y2.42
X1.075Y1.1
X1.075Y0.55
X1.125Y3.325
X1.175Y2.85
X1.175Y2.42
X1.275Y2.42
X1.3Y0.225
X1.5Y0.225
T7
X0.275Y2.2
X0.275Y1.3
X0.375Y2.2
X0.375Y1.3
X0.475Y2.2
X0.475Y1.3
X0.575Y2.2
X0.575Y1.3
X0.675Y2.2
X0.675Y1.3
X0.775Y2.2
X0.775Y1.3
X0.875Y2.2
X0.875Y1.3
X0.975Y2.2
X0.975Y1.3
X1.075Y2.2
X1.075Y1.3
X1.175Y2.2
X1.175Y1.3
X1.275Y2.2
X1.275Y1.3
X1.375Y2.2
X1.375Y1.3
X1.475Y2.2
X1.475Y1.3
X1.575Y2.2
X1.575Y1.3
X1.675Y2.2
X1.675Y1.3
T9
X0.1969Y3.3465
X0.1969Y0.1969
X0.5321Y3.2864
X0.5321Y2.4006
X1.4179Y3.2864
X1.4179Y2.4006
X1.7717Y3.3465
X1.7717Y0.1969
T1
X0.1854Y1.023G85X0.1146Y1.023
G05
X0.1854Y0.527G85X0.1146Y0.527
G05
T2
X1.7335Y0.8248G85X1.698Y0.8248
G05
X1.7335Y0.435G85X1.698Y0.435
G05
X1.8969Y0.8248G85X1.8496Y0.8248
G05
X1.8969Y0.435G85X1.8496Y0.435
G05
T8
X0.75Y0.8427G85X0.75Y0.8073
G05
X1.2Y0.8427G85X1.2Y0.8073
G05
T0
M30
