G04 #@! TF.FileFunction,Copper,L1,Top,Signal*
%FSLAX46Y46*%
G04 Gerber Fmt 4.6, Leading zero omitted, Abs format (unit mm)*
G04 Created by KiCad (PCBNEW 4.0.5) date 12/07/17 20:38:24*
%MOMM*%
%LPD*%
G01*
G04 APERTURE LIST*
%ADD10C,0.500000*%
%ADD11C,0.010000*%
%ADD12C,1.778000*%
%ADD13O,2.500000X4.000500*%
%ADD14R,2.032000X2.032000*%
%ADD15C,2.032000*%
%ADD16C,1.905000*%
%ADD17O,1.727200X2.032000*%
%ADD18C,2.540000*%
%ADD19C,2.000000*%
%ADD20O,3.000000X1.200000*%
%ADD21R,1.100000X0.450000*%
%ADD22O,2.100000X1.200000*%
%ADD23O,2.600000X1.200000*%
%ADD24R,2.100580X2.100580*%
%ADD25C,2.199640*%
%ADD26R,2.499360X2.499360*%
%ADD27C,2.499360*%
%ADD28C,1.397000*%
%ADD29R,1.397000X1.397000*%
%ADD30C,0.010000*%
%ADD31R,1.600000X1.000000*%
%ADD32R,1.000000X0.550000*%
%ADD33C,0.600000*%
%ADD34C,0.508000*%
%ADD35C,0.762000*%
%ADD36C,0.381000*%
G04 APERTURE END LIST*
D10*
D11*
G36*
X39346092Y80768486D02*
X39908908Y80723429D01*
X40383235Y80634807D01*
X40456706Y80613542D01*
X41273578Y80274299D01*
X42022366Y79794203D01*
X42552072Y79318761D01*
X43011128Y78790669D01*
X43357358Y78268757D01*
X43631748Y77688380D01*
X43701661Y77505568D01*
X43810208Y77080991D01*
X43877463Y76548005D01*
X43902724Y75962601D01*
X43885288Y75380766D01*
X43824454Y74858491D01*
X43739268Y74506667D01*
X43367352Y73639657D01*
X42874998Y72883171D01*
X42269541Y72245797D01*
X41558312Y71736122D01*
X41221847Y71558390D01*
X40843794Y71391722D01*
X40461020Y71245788D01*
X40140552Y71145533D01*
X40064332Y71127628D01*
X39706714Y71079357D01*
X39254732Y71053038D01*
X38782094Y71049998D01*
X38362508Y71071564D01*
X38184666Y71093786D01*
X37718855Y71209794D01*
X37198494Y71399168D01*
X36702263Y71630762D01*
X36432875Y71787273D01*
X35867718Y72225924D01*
X36322000Y72225924D01*
X36392788Y72155492D01*
X36582380Y72033474D01*
X36856614Y71880915D01*
X37009137Y71802590D01*
X37373528Y71627621D01*
X37643621Y71512920D01*
X37805182Y71462971D01*
X37843980Y71482259D01*
X37756224Y71567193D01*
X37619753Y71676597D01*
X37540248Y71741426D01*
X38190106Y71741426D01*
X38247397Y71604817D01*
X38357298Y71474632D01*
X38506337Y71353720D01*
X38648111Y71292979D01*
X38737631Y71302067D01*
X38736264Y71317756D01*
X39476409Y71317756D01*
X39518507Y71299848D01*
X39574702Y71317279D01*
X39761329Y71366830D01*
X39834202Y71374000D01*
X39953498Y71422093D01*
X40154601Y71546090D01*
X40265702Y71623855D01*
X40627351Y71623855D01*
X40641151Y71596793D01*
X40753851Y71628532D01*
X40767000Y71633157D01*
X40999427Y71732897D01*
X41279446Y71875799D01*
X41376457Y71930558D01*
X41652293Y72106355D01*
X41773844Y72223826D01*
X41743950Y72287769D01*
X41597496Y72303592D01*
X41357535Y72232632D01*
X41048671Y72019404D01*
X40936333Y71922529D01*
X40722421Y71726754D01*
X40627351Y71623855D01*
X40265702Y71623855D01*
X40396736Y71715572D01*
X40639129Y71900119D01*
X40841007Y72069312D01*
X40961597Y72192730D01*
X40978666Y72227844D01*
X40903142Y72274749D01*
X40712770Y72302292D01*
X40610920Y72305334D01*
X40394331Y72292663D01*
X40234297Y72233409D01*
X40075046Y72095708D01*
X39906977Y71903167D01*
X39661686Y71603620D01*
X39521149Y71413748D01*
X39476409Y71317756D01*
X38736264Y71317756D01*
X38729908Y71390645D01*
X38727401Y71395167D01*
X38593805Y71583738D01*
X38437586Y71743258D01*
X38304855Y71830900D01*
X38257026Y71832061D01*
X38190106Y71741426D01*
X37540248Y71741426D01*
X37407294Y71849836D01*
X37239504Y71987834D01*
X36909333Y72215380D01*
X36806854Y72248000D01*
X37253333Y72248000D01*
X37312398Y72163023D01*
X37460525Y72018503D01*
X37528500Y71959654D01*
X37701547Y71821491D01*
X37786722Y71787615D01*
X37822791Y71849901D01*
X37831528Y71896145D01*
X37832978Y72097541D01*
X37813019Y72184491D01*
X37774566Y72213750D01*
X38354000Y72213750D01*
X38401861Y72113433D01*
X38521633Y71935782D01*
X38677600Y71727282D01*
X38834043Y71534423D01*
X38955245Y71403691D01*
X38999199Y71374000D01*
X39016802Y71450603D01*
X39028474Y71648194D01*
X39031333Y71839667D01*
X39031333Y72305334D01*
X39200666Y72305334D01*
X39204460Y71818500D01*
X39208254Y71331667D01*
X39585460Y71752682D01*
X39776959Y71975596D01*
X39912726Y72151147D01*
X39962666Y72239515D01*
X39886958Y72278776D01*
X39695417Y72302320D01*
X39581666Y72305334D01*
X39200666Y72305334D01*
X39031333Y72305334D01*
X38692666Y72305334D01*
X38480498Y72285022D01*
X38362603Y72234259D01*
X38354000Y72213750D01*
X37774566Y72213750D01*
X37720317Y72255027D01*
X37551297Y72298738D01*
X37375992Y72307678D01*
X37264440Y72273900D01*
X37253333Y72248000D01*
X36806854Y72248000D01*
X36632739Y72303422D01*
X36588446Y72305334D01*
X36404774Y72283319D01*
X36322337Y72229928D01*
X36322000Y72225924D01*
X35867718Y72225924D01*
X35844751Y72243750D01*
X35307538Y72805899D01*
X34849426Y73435189D01*
X34582818Y73935167D01*
X34882983Y73935167D01*
X34937525Y73778396D01*
X35080001Y73539103D01*
X35280223Y73256092D01*
X35507998Y72968169D01*
X35733137Y72714136D01*
X35925450Y72532800D01*
X36022343Y72470705D01*
X36238144Y72414657D01*
X36471227Y72396382D01*
X36646318Y72419324D01*
X36682907Y72440464D01*
X36665774Y72530797D01*
X36569198Y72712151D01*
X36455663Y72884964D01*
X36253561Y73187132D01*
X36056688Y73505562D01*
X35980387Y73638834D01*
X35856949Y73847763D01*
X35817619Y73884794D01*
X36068000Y73884794D01*
X36114288Y73753777D01*
X36235069Y73529784D01*
X36403213Y73255289D01*
X36591591Y72972766D01*
X36773074Y72724691D01*
X36914437Y72559563D01*
X37129938Y72434669D01*
X37383473Y72407284D01*
X37607447Y72476490D01*
X37691560Y72558542D01*
X38583104Y72558542D01*
X38604657Y72434262D01*
X38763158Y72401559D01*
X38806489Y72406325D01*
X38909449Y72440158D01*
X38967260Y72531844D01*
X38995242Y72722513D01*
X39002356Y72875106D01*
X39199959Y72875106D01*
X39208513Y72614565D01*
X39251354Y72454479D01*
X39261014Y72442542D01*
X39375335Y72411290D01*
X39593659Y72402634D01*
X39705514Y72407264D01*
X39899913Y72425130D01*
X40033140Y72469286D01*
X40067281Y72501699D01*
X40434578Y72501699D01*
X40436044Y72462191D01*
X40550653Y72409779D01*
X40761996Y72392176D01*
X41001244Y72408644D01*
X41199570Y72458445D01*
X41225152Y72470646D01*
X41236173Y72480316D01*
X41571333Y72480316D01*
X41634506Y72396722D01*
X41793627Y72395526D01*
X42003094Y72466184D01*
X42217308Y72598154D01*
X42268497Y72641519D01*
X42431695Y72796175D01*
X42477178Y72870088D01*
X42415169Y72893450D01*
X42354500Y72895519D01*
X42200796Y72945851D01*
X42164000Y73025000D01*
X42123622Y73137749D01*
X42089382Y73152000D01*
X41993714Y73088447D01*
X41852618Y72933889D01*
X41707861Y72742480D01*
X41601208Y72568374D01*
X41571333Y72480316D01*
X41236173Y72480316D01*
X41349730Y72579951D01*
X41525473Y72785197D01*
X41695079Y73014813D01*
X41864036Y73268678D01*
X41947541Y73435100D01*
X41959586Y73563693D01*
X41914162Y73704071D01*
X41899158Y73738501D01*
X41809082Y73900840D01*
X41689344Y73976697D01*
X41478513Y73998080D01*
X41399866Y73998667D01*
X41015735Y73998667D01*
X40703582Y73266524D01*
X40572422Y72941224D01*
X40478527Y72673573D01*
X40434578Y72501699D01*
X40067281Y72501699D01*
X40141305Y72571974D01*
X40260516Y72765439D01*
X40397327Y73025000D01*
X40603740Y73424572D01*
X40729378Y73696617D01*
X40768113Y73865601D01*
X40713813Y73955991D01*
X40560350Y73992254D01*
X40301594Y73998855D01*
X40153386Y73998667D01*
X39486029Y73998667D01*
X39343347Y73699461D01*
X39271045Y73473554D01*
X39222026Y73180102D01*
X39199959Y72875106D01*
X39002356Y72875106D01*
X39005397Y72940334D01*
X39009267Y73201649D01*
X38997065Y73306350D01*
X38966355Y73266606D01*
X38949825Y73217768D01*
X38842903Y72981215D01*
X38701748Y72763316D01*
X38583104Y72558542D01*
X37691560Y72558542D01*
X37703561Y72570248D01*
X37729821Y72689477D01*
X37690298Y72885370D01*
X37577649Y73187074D01*
X37506299Y73353415D01*
X37290917Y73843513D01*
X37487638Y73843513D01*
X37541183Y73663742D01*
X37607980Y73490667D01*
X37712430Y73256408D01*
X37794587Y73102673D01*
X37826102Y73067334D01*
X37842029Y73141822D01*
X37831822Y73328869D01*
X37821234Y73418203D01*
X37737194Y73723799D01*
X37590840Y73887798D01*
X37490858Y73912704D01*
X37487638Y73843513D01*
X37290917Y73843513D01*
X37222731Y73998667D01*
X36645365Y73998667D01*
X36317564Y73988859D01*
X36133598Y73956209D01*
X36068930Y73895876D01*
X36068000Y73884794D01*
X35817619Y73884794D01*
X35743567Y73954515D01*
X35578518Y73993383D01*
X35332742Y73998667D01*
X35082660Y73987884D01*
X34919383Y73960156D01*
X34882983Y73935167D01*
X34582818Y73935167D01*
X34498607Y74093089D01*
X34288346Y74718381D01*
X34225905Y75143414D01*
X34198937Y75668934D01*
X34201590Y75871064D01*
X34433938Y75871064D01*
X34485193Y75322182D01*
X34532980Y74977815D01*
X34603670Y74653880D01*
X34662904Y74470650D01*
X34749012Y74291192D01*
X34849206Y74201802D01*
X35020760Y74171198D01*
X35217013Y74168000D01*
X35459627Y74179310D01*
X35613925Y74208257D01*
X35643244Y74231500D01*
X35626674Y74337629D01*
X35583475Y74568777D01*
X35521395Y74884154D01*
X35486447Y75057000D01*
X35379731Y75580368D01*
X35560000Y75580368D01*
X35585688Y75331483D01*
X35651716Y75014942D01*
X35741531Y74691218D01*
X35838578Y74420779D01*
X35917672Y74273834D01*
X36058018Y74211176D01*
X36339505Y74175149D01*
X36590203Y74168000D01*
X37176339Y74168000D01*
X37120597Y74485500D01*
X37050106Y74880936D01*
X37013326Y75046391D01*
X37182217Y75046391D01*
X37203315Y74961828D01*
X37272836Y74868111D01*
X37357708Y74915843D01*
X37411998Y75031429D01*
X37356344Y75114856D01*
X37243548Y75174389D01*
X37201951Y75160841D01*
X37182217Y75046391D01*
X37013326Y75046391D01*
X36991087Y75146427D01*
X36923342Y75318372D01*
X36826673Y75433170D01*
X36680879Y75527222D01*
X36487808Y75625805D01*
X36244592Y75732458D01*
X37115384Y75732458D01*
X37117274Y75727409D01*
X37163835Y75536681D01*
X37168666Y75473409D01*
X37233917Y75378388D01*
X37380607Y75357825D01*
X37535137Y75418072D01*
X37559773Y75439641D01*
X37695410Y75469381D01*
X37925605Y75426892D01*
X38203002Y75332322D01*
X38480245Y75205826D01*
X38709980Y75067553D01*
X38844850Y74937655D01*
X38862000Y74885493D01*
X38908409Y74774224D01*
X38946666Y74760667D01*
X38990910Y74838425D01*
X39021201Y75044407D01*
X39031333Y75311000D01*
X39031333Y75861334D01*
X39200666Y75861334D01*
X39200666Y75282257D01*
X39205747Y74971979D01*
X39230192Y74786883D01*
X39287807Y74682911D01*
X39392398Y74616002D01*
X39412333Y74606739D01*
X39578710Y74470390D01*
X39624000Y74339149D01*
X39638654Y74251464D01*
X39706116Y74200129D01*
X39861633Y74175583D01*
X40140454Y74168265D01*
X40255020Y74168000D01*
X40886040Y74168000D01*
X41067566Y74168000D01*
X41488783Y74168000D01*
X41745064Y74178553D01*
X41871623Y74219367D01*
X41907259Y74304181D01*
X41907307Y74316167D01*
X41855589Y74501846D01*
X41854311Y74504034D01*
X43295576Y74504034D01*
X43311587Y74414578D01*
X43379019Y74366685D01*
X43442654Y74469954D01*
X43498656Y74642660D01*
X43512715Y74715310D01*
X43469366Y74729319D01*
X43381648Y74659935D01*
X43295576Y74504034D01*
X41854311Y74504034D01*
X41786122Y74620730D01*
X41710044Y74791405D01*
X41713206Y74895897D01*
X41708310Y74999679D01*
X41671983Y75014667D01*
X41520556Y75042961D01*
X41452434Y75065607D01*
X41337888Y75050825D01*
X41240584Y74900546D01*
X41152949Y74600570D01*
X41120375Y74443167D01*
X41067566Y74168000D01*
X40886040Y74168000D01*
X40974214Y74485500D01*
X41044803Y74777146D01*
X41052439Y74941262D01*
X40995453Y75008172D01*
X40945104Y75014667D01*
X40828553Y75067460D01*
X40675361Y75198223D01*
X40521443Y75365535D01*
X40437536Y75480334D01*
X43518666Y75480334D01*
X43561000Y75438000D01*
X43603333Y75480334D01*
X43561000Y75522667D01*
X43518666Y75480334D01*
X40437536Y75480334D01*
X40402715Y75527975D01*
X40355091Y75644121D01*
X40373624Y75673764D01*
X40429721Y75724797D01*
X43293770Y75724797D01*
X43307000Y75692000D01*
X43383082Y75611230D01*
X43396663Y75607334D01*
X43433029Y75672840D01*
X43434000Y75692000D01*
X43368912Y75773414D01*
X43344336Y75776667D01*
X43293770Y75724797D01*
X40429721Y75724797D01*
X40465655Y75757487D01*
X40470666Y75783723D01*
X40392925Y75820819D01*
X40187281Y75848261D01*
X39895101Y75860994D01*
X39835666Y75861334D01*
X39200666Y75861334D01*
X39031333Y75861334D01*
X38569650Y75861334D01*
X38263532Y75843068D01*
X37994414Y75796472D01*
X37890020Y75762030D01*
X37701458Y75705104D01*
X37579080Y75755893D01*
X37572770Y75762030D01*
X37414088Y75840759D01*
X37269674Y75861334D01*
X37123802Y75832668D01*
X37115384Y75732458D01*
X36244592Y75732458D01*
X36198173Y75752813D01*
X35932587Y75837923D01*
X35792833Y75859915D01*
X35633115Y75840594D01*
X35569885Y75745649D01*
X35560000Y75580368D01*
X35379731Y75580368D01*
X35331072Y75819000D01*
X34433938Y75871064D01*
X34201590Y75871064D01*
X34206311Y76230567D01*
X34208624Y76260964D01*
X34434497Y76260964D01*
X34455394Y76112865D01*
X34534192Y76031116D01*
X34535061Y76030606D01*
X34738329Y75968376D01*
X34997550Y75952567D01*
X35221209Y75985618D01*
X35276825Y76010844D01*
X35326381Y76118407D01*
X35342695Y76195236D01*
X35533937Y76195236D01*
X35573810Y76057114D01*
X35577873Y76051834D01*
X35695275Y75956267D01*
X35831733Y75988763D01*
X35888003Y76022285D01*
X35951879Y76097943D01*
X35936834Y76163320D01*
X36538062Y76163320D01*
X36538805Y76019945D01*
X36559913Y75990310D01*
X36692584Y75952362D01*
X36828375Y76031643D01*
X36899388Y76179699D01*
X36893515Y76231045D01*
X37084000Y76231045D01*
X37110461Y76063697D01*
X37168519Y75984850D01*
X37226186Y76026602D01*
X37240106Y76074398D01*
X37217122Y76249163D01*
X37176606Y76310594D01*
X37103729Y76341348D01*
X37084000Y76231045D01*
X36893515Y76231045D01*
X36882257Y76329468D01*
X36802582Y76355684D01*
X37434180Y76355684D01*
X37438829Y76153141D01*
X37555744Y76023755D01*
X37613166Y76005753D01*
X37966645Y75965873D01*
X38368986Y75960651D01*
X38721067Y75990676D01*
X38766750Y75998917D01*
X39031333Y76051834D01*
X39031333Y76844073D01*
X39200666Y76844073D01*
X39202744Y76453216D01*
X39224852Y76200636D01*
X39290797Y76055318D01*
X39424390Y75986249D01*
X39649439Y75962414D01*
X39882557Y75955822D01*
X40141354Y75967249D01*
X40328578Y76040911D01*
X40460176Y76155102D01*
X43032564Y76155102D01*
X43049518Y76120967D01*
X43130251Y76033434D01*
X43145102Y76095163D01*
X43124549Y76161319D01*
X43062216Y76253525D01*
X43034062Y76251618D01*
X43032564Y76155102D01*
X40460176Y76155102D01*
X40524952Y76211309D01*
X40557060Y76244116D01*
X40738003Y76455478D01*
X40818280Y76644122D01*
X40830678Y76891562D01*
X40829501Y76921449D01*
X40830299Y76979730D01*
X41334321Y76979730D01*
X41358100Y76898774D01*
X41518633Y76877334D01*
X41719176Y76828818D01*
X41821410Y76755061D01*
X41969490Y76664846D01*
X42199092Y76604314D01*
X42233944Y76599960D01*
X42457011Y76574692D01*
X42602840Y76555057D01*
X42614708Y76552900D01*
X42660194Y76607657D01*
X42656311Y76686834D01*
X42641376Y76708000D01*
X42841333Y76708000D01*
X42870220Y76625535D01*
X42878669Y76623334D01*
X42950955Y76682663D01*
X42968333Y76708000D01*
X42961620Y76786019D01*
X42930996Y76792667D01*
X42844778Y76731207D01*
X42841333Y76708000D01*
X42641376Y76708000D01*
X42582036Y76792094D01*
X42388072Y76848588D01*
X42262044Y76861380D01*
X42023233Y76896200D01*
X41934523Y76959660D01*
X41938574Y76999010D01*
X41904136Y77112820D01*
X41784427Y77199945D01*
X41606812Y77242987D01*
X41467126Y77156121D01*
X41452461Y77140315D01*
X41334321Y76979730D01*
X40830299Y76979730D01*
X40832853Y77165971D01*
X40878123Y77279715D01*
X40944373Y77300667D01*
X41043907Y77364249D01*
X41047371Y77448834D01*
X41014271Y77515773D01*
X40925673Y77561224D01*
X40751947Y77590629D01*
X40463464Y77609429D01*
X40109829Y77621032D01*
X39200666Y77645063D01*
X39200666Y76844073D01*
X39031333Y76844073D01*
X39031333Y77639334D01*
X38744058Y77639334D01*
X38512808Y77602065D01*
X38408048Y77512334D01*
X38297337Y77399742D01*
X38234019Y77385334D01*
X38077616Y77325147D01*
X37892276Y77181434D01*
X37737792Y77009469D01*
X37673973Y76867625D01*
X37623675Y76711379D01*
X37546973Y76585985D01*
X37434180Y76355684D01*
X36802582Y76355684D01*
X36761096Y76369334D01*
X36625623Y76305148D01*
X36538062Y76163320D01*
X35936834Y76163320D01*
X35923278Y76222224D01*
X35848582Y76359656D01*
X35731997Y76533210D01*
X35645641Y76620782D01*
X35636282Y76623334D01*
X35572640Y76551412D01*
X35536036Y76384358D01*
X35533937Y76195236D01*
X35342695Y76195236D01*
X35376563Y76354728D01*
X35419771Y76679435D01*
X35435912Y76856215D01*
X35497174Y77639334D01*
X35118655Y77639334D01*
X34882298Y77630369D01*
X34755673Y77574679D01*
X34679218Y77429066D01*
X34635063Y77288631D01*
X34554686Y76976920D01*
X34481803Y76625176D01*
X34464556Y76523995D01*
X34434497Y76260964D01*
X34208624Y76260964D01*
X34246899Y76763937D01*
X34319568Y77204670D01*
X34332938Y77257956D01*
X34552549Y77842058D01*
X34922187Y77842058D01*
X35015969Y77751390D01*
X35200782Y77764235D01*
X35374112Y77811711D01*
X35449618Y77839397D01*
X35448016Y77925030D01*
X35425284Y78125264D01*
X35404009Y78277015D01*
X35389683Y78373327D01*
X37523488Y78373327D01*
X37614534Y78319732D01*
X37667608Y78316667D01*
X37834335Y78390955D01*
X37920548Y78603896D01*
X37930666Y78746925D01*
X37974916Y78888392D01*
X38089883Y78909446D01*
X38248893Y78828200D01*
X38425272Y78662766D01*
X38592345Y78431253D01*
X38694090Y78228563D01*
X38761016Y78026886D01*
X38741459Y77930774D01*
X38708868Y77912846D01*
X38644220Y77835189D01*
X38654802Y77801436D01*
X38714564Y77733420D01*
X38811017Y77743737D01*
X38897408Y77775392D01*
X38990986Y77900265D01*
X39027629Y78152698D01*
X39200666Y78152698D01*
X39212443Y77935739D01*
X39274922Y77833438D01*
X39428828Y77791413D01*
X39475833Y77785248D01*
X40019063Y77739185D01*
X40409438Y77754514D01*
X40644679Y77831100D01*
X40676285Y77857048D01*
X40776702Y78049343D01*
X40787391Y78289214D01*
X40722344Y78520973D01*
X40595555Y78688935D01*
X40454419Y78740000D01*
X40303837Y78797813D01*
X40234161Y78925876D01*
X40274535Y79056127D01*
X40307710Y79082609D01*
X40375352Y79176199D01*
X40358530Y79219025D01*
X40245498Y79230911D01*
X40129298Y79181295D01*
X39946341Y79098137D01*
X39845178Y79078667D01*
X39729805Y79011486D01*
X39589633Y78844106D01*
X39550551Y78782334D01*
X39420791Y78595729D01*
X39311110Y78492947D01*
X39288188Y78486000D01*
X39233025Y78410975D01*
X39202689Y78223889D01*
X39200666Y78152698D01*
X39027629Y78152698D01*
X39031021Y78176064D01*
X39016831Y78592842D01*
X38977491Y78939850D01*
X38934091Y79256492D01*
X40568764Y79256492D01*
X40603982Y79153163D01*
X40682333Y79078667D01*
X40783963Y78914164D01*
X40809333Y78773919D01*
X40884321Y78566531D01*
X41021000Y78435881D01*
X41172669Y78305984D01*
X41232666Y78196863D01*
X41299276Y78024781D01*
X41455635Y77953250D01*
X41579588Y77982419D01*
X41728356Y78085496D01*
X41778720Y78140410D01*
X41751411Y78232000D01*
X42037000Y78232000D01*
X42043712Y78153982D01*
X42074336Y78147334D01*
X42160554Y78208794D01*
X42164000Y78232000D01*
X42135113Y78314466D01*
X42126663Y78316667D01*
X42054377Y78257338D01*
X42037000Y78232000D01*
X41751411Y78232000D01*
X41750259Y78235862D01*
X41618037Y78368275D01*
X41594082Y78386332D01*
X41523082Y78443667D01*
X42248666Y78443667D01*
X42291000Y78401334D01*
X42333333Y78443667D01*
X42291000Y78486000D01*
X42248666Y78443667D01*
X41523082Y78443667D01*
X41443586Y78507862D01*
X41433381Y78542445D01*
X42530888Y78542445D01*
X42542511Y78492111D01*
X42587333Y78486000D01*
X42657023Y78516979D01*
X42643777Y78542445D01*
X42543298Y78552578D01*
X42530888Y78542445D01*
X41433381Y78542445D01*
X41417797Y78595250D01*
X41492708Y78697667D01*
X42079333Y78697667D01*
X42121666Y78655334D01*
X42164000Y78697667D01*
X42121666Y78740000D01*
X42079333Y78697667D01*
X41492708Y78697667D01*
X41501136Y78709189D01*
X41508979Y78717878D01*
X41634291Y78891047D01*
X41625928Y79032093D01*
X41515877Y79177834D01*
X41349756Y79280501D01*
X41684769Y79280501D01*
X41698333Y79248000D01*
X41810492Y79166495D01*
X41835326Y79163334D01*
X41881230Y79215500D01*
X41867666Y79248000D01*
X41755507Y79329506D01*
X41730673Y79332667D01*
X41684769Y79280501D01*
X41349756Y79280501D01*
X41335661Y79289212D01*
X41040514Y79331557D01*
X40965544Y79332667D01*
X40687276Y79314524D01*
X40568764Y79256492D01*
X38934091Y79256492D01*
X38923650Y79332667D01*
X38482614Y79332667D01*
X38181097Y79312136D01*
X37971420Y79228285D01*
X37804259Y79047727D01*
X37644543Y78765372D01*
X37533929Y78513368D01*
X37523488Y78373327D01*
X35389683Y78373327D01*
X35355692Y78601826D01*
X37258958Y78601826D01*
X37324409Y78570667D01*
X37406116Y78639324D01*
X37500828Y78801868D01*
X37568242Y78958415D01*
X37549567Y78976775D01*
X37429751Y78873413D01*
X37287761Y78712177D01*
X37258958Y78601826D01*
X35355692Y78601826D01*
X35341434Y78697667D01*
X35106015Y78329956D01*
X34951795Y78037346D01*
X34922187Y77842058D01*
X34552549Y77842058D01*
X34624444Y78033275D01*
X35061688Y78751426D01*
X35625433Y79393418D01*
X35864087Y79587911D01*
X38184666Y79587911D01*
X38260811Y79538904D01*
X38455502Y79507799D01*
X38608000Y79502000D01*
X39031333Y79502000D01*
X39031333Y79671334D01*
X40640000Y79671334D01*
X40689608Y79538549D01*
X40851666Y79502000D01*
X41010797Y79529970D01*
X41063333Y79583688D01*
X40997773Y79677343D01*
X40853291Y79780295D01*
X40708188Y79838950D01*
X40687899Y79840667D01*
X40648927Y79769487D01*
X40640000Y79671334D01*
X39031333Y79671334D01*
X39031333Y79787967D01*
X38992170Y80022313D01*
X38927133Y80133445D01*
X40768532Y80133445D01*
X40839728Y80030948D01*
X40989504Y79893193D01*
X41184442Y79745935D01*
X41391126Y79614929D01*
X41576140Y79525930D01*
X41682163Y79502230D01*
X41840810Y79527131D01*
X41866576Y79588431D01*
X41754617Y79688749D01*
X41543101Y79826982D01*
X41286334Y79973002D01*
X41038626Y80096683D01*
X40854283Y80167898D01*
X40809333Y80174929D01*
X40768532Y80133445D01*
X38927133Y80133445D01*
X38896465Y80185848D01*
X38895016Y80187066D01*
X38797962Y80238295D01*
X38692608Y80201697D01*
X38537403Y80057637D01*
X38471683Y79987010D01*
X38305805Y79790098D01*
X38202145Y79636434D01*
X38184666Y79587911D01*
X35864087Y79587911D01*
X35968945Y79673365D01*
X37315029Y79673365D01*
X37339768Y79632847D01*
X37499419Y79626257D01*
X37582226Y79628047D01*
X37778262Y79649248D01*
X37941850Y79721181D01*
X38121220Y79873529D01*
X38312047Y80077208D01*
X38495939Y80292642D01*
X38611289Y80449670D01*
X38635627Y80517339D01*
X38632031Y80518000D01*
X38514807Y80474508D01*
X38302745Y80362138D01*
X38040472Y80208052D01*
X37772613Y80039411D01*
X37543796Y79883376D01*
X37399191Y79767647D01*
X37315029Y79673365D01*
X35968945Y79673365D01*
X36196625Y79858913D01*
X36795218Y79858913D01*
X36833602Y79793994D01*
X36892826Y79732709D01*
X36959695Y79717337D01*
X37066748Y79761132D01*
X37246524Y79877349D01*
X37528500Y80077052D01*
X37743929Y80235856D01*
X37889881Y80352628D01*
X37930666Y80395187D01*
X37861141Y80392036D01*
X37684257Y80337942D01*
X37447553Y80250377D01*
X37198567Y80146814D01*
X37002967Y80054213D01*
X36830984Y79947370D01*
X36795218Y79858913D01*
X36196625Y79858913D01*
X36296445Y79940261D01*
X37055487Y80372966D01*
X37755533Y80636843D01*
X38206522Y80725735D01*
X38757670Y80769435D01*
X39346092Y80768486D01*
X39346092Y80768486D01*
G37*
X39346092Y80768486D02*
X39908908Y80723429D01*
X40383235Y80634807D01*
X40456706Y80613542D01*
X41273578Y80274299D01*
X42022366Y79794203D01*
X42552072Y79318761D01*
X43011128Y78790669D01*
X43357358Y78268757D01*
X43631748Y77688380D01*
X43701661Y77505568D01*
X43810208Y77080991D01*
X43877463Y76548005D01*
X43902724Y75962601D01*
X43885288Y75380766D01*
X43824454Y74858491D01*
X43739268Y74506667D01*
X43367352Y73639657D01*
X42874998Y72883171D01*
X42269541Y72245797D01*
X41558312Y71736122D01*
X41221847Y71558390D01*
X40843794Y71391722D01*
X40461020Y71245788D01*
X40140552Y71145533D01*
X40064332Y71127628D01*
X39706714Y71079357D01*
X39254732Y71053038D01*
X38782094Y71049998D01*
X38362508Y71071564D01*
X38184666Y71093786D01*
X37718855Y71209794D01*
X37198494Y71399168D01*
X36702263Y71630762D01*
X36432875Y71787273D01*
X35867718Y72225924D01*
X36322000Y72225924D01*
X36392788Y72155492D01*
X36582380Y72033474D01*
X36856614Y71880915D01*
X37009137Y71802590D01*
X37373528Y71627621D01*
X37643621Y71512920D01*
X37805182Y71462971D01*
X37843980Y71482259D01*
X37756224Y71567193D01*
X37619753Y71676597D01*
X37540248Y71741426D01*
X38190106Y71741426D01*
X38247397Y71604817D01*
X38357298Y71474632D01*
X38506337Y71353720D01*
X38648111Y71292979D01*
X38737631Y71302067D01*
X38736264Y71317756D01*
X39476409Y71317756D01*
X39518507Y71299848D01*
X39574702Y71317279D01*
X39761329Y71366830D01*
X39834202Y71374000D01*
X39953498Y71422093D01*
X40154601Y71546090D01*
X40265702Y71623855D01*
X40627351Y71623855D01*
X40641151Y71596793D01*
X40753851Y71628532D01*
X40767000Y71633157D01*
X40999427Y71732897D01*
X41279446Y71875799D01*
X41376457Y71930558D01*
X41652293Y72106355D01*
X41773844Y72223826D01*
X41743950Y72287769D01*
X41597496Y72303592D01*
X41357535Y72232632D01*
X41048671Y72019404D01*
X40936333Y71922529D01*
X40722421Y71726754D01*
X40627351Y71623855D01*
X40265702Y71623855D01*
X40396736Y71715572D01*
X40639129Y71900119D01*
X40841007Y72069312D01*
X40961597Y72192730D01*
X40978666Y72227844D01*
X40903142Y72274749D01*
X40712770Y72302292D01*
X40610920Y72305334D01*
X40394331Y72292663D01*
X40234297Y72233409D01*
X40075046Y72095708D01*
X39906977Y71903167D01*
X39661686Y71603620D01*
X39521149Y71413748D01*
X39476409Y71317756D01*
X38736264Y71317756D01*
X38729908Y71390645D01*
X38727401Y71395167D01*
X38593805Y71583738D01*
X38437586Y71743258D01*
X38304855Y71830900D01*
X38257026Y71832061D01*
X38190106Y71741426D01*
X37540248Y71741426D01*
X37407294Y71849836D01*
X37239504Y71987834D01*
X36909333Y72215380D01*
X36806854Y72248000D01*
X37253333Y72248000D01*
X37312398Y72163023D01*
X37460525Y72018503D01*
X37528500Y71959654D01*
X37701547Y71821491D01*
X37786722Y71787615D01*
X37822791Y71849901D01*
X37831528Y71896145D01*
X37832978Y72097541D01*
X37813019Y72184491D01*
X37774566Y72213750D01*
X38354000Y72213750D01*
X38401861Y72113433D01*
X38521633Y71935782D01*
X38677600Y71727282D01*
X38834043Y71534423D01*
X38955245Y71403691D01*
X38999199Y71374000D01*
X39016802Y71450603D01*
X39028474Y71648194D01*
X39031333Y71839667D01*
X39031333Y72305334D01*
X39200666Y72305334D01*
X39204460Y71818500D01*
X39208254Y71331667D01*
X39585460Y71752682D01*
X39776959Y71975596D01*
X39912726Y72151147D01*
X39962666Y72239515D01*
X39886958Y72278776D01*
X39695417Y72302320D01*
X39581666Y72305334D01*
X39200666Y72305334D01*
X39031333Y72305334D01*
X38692666Y72305334D01*
X38480498Y72285022D01*
X38362603Y72234259D01*
X38354000Y72213750D01*
X37774566Y72213750D01*
X37720317Y72255027D01*
X37551297Y72298738D01*
X37375992Y72307678D01*
X37264440Y72273900D01*
X37253333Y72248000D01*
X36806854Y72248000D01*
X36632739Y72303422D01*
X36588446Y72305334D01*
X36404774Y72283319D01*
X36322337Y72229928D01*
X36322000Y72225924D01*
X35867718Y72225924D01*
X35844751Y72243750D01*
X35307538Y72805899D01*
X34849426Y73435189D01*
X34582818Y73935167D01*
X34882983Y73935167D01*
X34937525Y73778396D01*
X35080001Y73539103D01*
X35280223Y73256092D01*
X35507998Y72968169D01*
X35733137Y72714136D01*
X35925450Y72532800D01*
X36022343Y72470705D01*
X36238144Y72414657D01*
X36471227Y72396382D01*
X36646318Y72419324D01*
X36682907Y72440464D01*
X36665774Y72530797D01*
X36569198Y72712151D01*
X36455663Y72884964D01*
X36253561Y73187132D01*
X36056688Y73505562D01*
X35980387Y73638834D01*
X35856949Y73847763D01*
X35817619Y73884794D01*
X36068000Y73884794D01*
X36114288Y73753777D01*
X36235069Y73529784D01*
X36403213Y73255289D01*
X36591591Y72972766D01*
X36773074Y72724691D01*
X36914437Y72559563D01*
X37129938Y72434669D01*
X37383473Y72407284D01*
X37607447Y72476490D01*
X37691560Y72558542D01*
X38583104Y72558542D01*
X38604657Y72434262D01*
X38763158Y72401559D01*
X38806489Y72406325D01*
X38909449Y72440158D01*
X38967260Y72531844D01*
X38995242Y72722513D01*
X39002356Y72875106D01*
X39199959Y72875106D01*
X39208513Y72614565D01*
X39251354Y72454479D01*
X39261014Y72442542D01*
X39375335Y72411290D01*
X39593659Y72402634D01*
X39705514Y72407264D01*
X39899913Y72425130D01*
X40033140Y72469286D01*
X40067281Y72501699D01*
X40434578Y72501699D01*
X40436044Y72462191D01*
X40550653Y72409779D01*
X40761996Y72392176D01*
X41001244Y72408644D01*
X41199570Y72458445D01*
X41225152Y72470646D01*
X41236173Y72480316D01*
X41571333Y72480316D01*
X41634506Y72396722D01*
X41793627Y72395526D01*
X42003094Y72466184D01*
X42217308Y72598154D01*
X42268497Y72641519D01*
X42431695Y72796175D01*
X42477178Y72870088D01*
X42415169Y72893450D01*
X42354500Y72895519D01*
X42200796Y72945851D01*
X42164000Y73025000D01*
X42123622Y73137749D01*
X42089382Y73152000D01*
X41993714Y73088447D01*
X41852618Y72933889D01*
X41707861Y72742480D01*
X41601208Y72568374D01*
X41571333Y72480316D01*
X41236173Y72480316D01*
X41349730Y72579951D01*
X41525473Y72785197D01*
X41695079Y73014813D01*
X41864036Y73268678D01*
X41947541Y73435100D01*
X41959586Y73563693D01*
X41914162Y73704071D01*
X41899158Y73738501D01*
X41809082Y73900840D01*
X41689344Y73976697D01*
X41478513Y73998080D01*
X41399866Y73998667D01*
X41015735Y73998667D01*
X40703582Y73266524D01*
X40572422Y72941224D01*
X40478527Y72673573D01*
X40434578Y72501699D01*
X40067281Y72501699D01*
X40141305Y72571974D01*
X40260516Y72765439D01*
X40397327Y73025000D01*
X40603740Y73424572D01*
X40729378Y73696617D01*
X40768113Y73865601D01*
X40713813Y73955991D01*
X40560350Y73992254D01*
X40301594Y73998855D01*
X40153386Y73998667D01*
X39486029Y73998667D01*
X39343347Y73699461D01*
X39271045Y73473554D01*
X39222026Y73180102D01*
X39199959Y72875106D01*
X39002356Y72875106D01*
X39005397Y72940334D01*
X39009267Y73201649D01*
X38997065Y73306350D01*
X38966355Y73266606D01*
X38949825Y73217768D01*
X38842903Y72981215D01*
X38701748Y72763316D01*
X38583104Y72558542D01*
X37691560Y72558542D01*
X37703561Y72570248D01*
X37729821Y72689477D01*
X37690298Y72885370D01*
X37577649Y73187074D01*
X37506299Y73353415D01*
X37290917Y73843513D01*
X37487638Y73843513D01*
X37541183Y73663742D01*
X37607980Y73490667D01*
X37712430Y73256408D01*
X37794587Y73102673D01*
X37826102Y73067334D01*
X37842029Y73141822D01*
X37831822Y73328869D01*
X37821234Y73418203D01*
X37737194Y73723799D01*
X37590840Y73887798D01*
X37490858Y73912704D01*
X37487638Y73843513D01*
X37290917Y73843513D01*
X37222731Y73998667D01*
X36645365Y73998667D01*
X36317564Y73988859D01*
X36133598Y73956209D01*
X36068930Y73895876D01*
X36068000Y73884794D01*
X35817619Y73884794D01*
X35743567Y73954515D01*
X35578518Y73993383D01*
X35332742Y73998667D01*
X35082660Y73987884D01*
X34919383Y73960156D01*
X34882983Y73935167D01*
X34582818Y73935167D01*
X34498607Y74093089D01*
X34288346Y74718381D01*
X34225905Y75143414D01*
X34198937Y75668934D01*
X34201590Y75871064D01*
X34433938Y75871064D01*
X34485193Y75322182D01*
X34532980Y74977815D01*
X34603670Y74653880D01*
X34662904Y74470650D01*
X34749012Y74291192D01*
X34849206Y74201802D01*
X35020760Y74171198D01*
X35217013Y74168000D01*
X35459627Y74179310D01*
X35613925Y74208257D01*
X35643244Y74231500D01*
X35626674Y74337629D01*
X35583475Y74568777D01*
X35521395Y74884154D01*
X35486447Y75057000D01*
X35379731Y75580368D01*
X35560000Y75580368D01*
X35585688Y75331483D01*
X35651716Y75014942D01*
X35741531Y74691218D01*
X35838578Y74420779D01*
X35917672Y74273834D01*
X36058018Y74211176D01*
X36339505Y74175149D01*
X36590203Y74168000D01*
X37176339Y74168000D01*
X37120597Y74485500D01*
X37050106Y74880936D01*
X37013326Y75046391D01*
X37182217Y75046391D01*
X37203315Y74961828D01*
X37272836Y74868111D01*
X37357708Y74915843D01*
X37411998Y75031429D01*
X37356344Y75114856D01*
X37243548Y75174389D01*
X37201951Y75160841D01*
X37182217Y75046391D01*
X37013326Y75046391D01*
X36991087Y75146427D01*
X36923342Y75318372D01*
X36826673Y75433170D01*
X36680879Y75527222D01*
X36487808Y75625805D01*
X36244592Y75732458D01*
X37115384Y75732458D01*
X37117274Y75727409D01*
X37163835Y75536681D01*
X37168666Y75473409D01*
X37233917Y75378388D01*
X37380607Y75357825D01*
X37535137Y75418072D01*
X37559773Y75439641D01*
X37695410Y75469381D01*
X37925605Y75426892D01*
X38203002Y75332322D01*
X38480245Y75205826D01*
X38709980Y75067553D01*
X38844850Y74937655D01*
X38862000Y74885493D01*
X38908409Y74774224D01*
X38946666Y74760667D01*
X38990910Y74838425D01*
X39021201Y75044407D01*
X39031333Y75311000D01*
X39031333Y75861334D01*
X39200666Y75861334D01*
X39200666Y75282257D01*
X39205747Y74971979D01*
X39230192Y74786883D01*
X39287807Y74682911D01*
X39392398Y74616002D01*
X39412333Y74606739D01*
X39578710Y74470390D01*
X39624000Y74339149D01*
X39638654Y74251464D01*
X39706116Y74200129D01*
X39861633Y74175583D01*
X40140454Y74168265D01*
X40255020Y74168000D01*
X40886040Y74168000D01*
X41067566Y74168000D01*
X41488783Y74168000D01*
X41745064Y74178553D01*
X41871623Y74219367D01*
X41907259Y74304181D01*
X41907307Y74316167D01*
X41855589Y74501846D01*
X41854311Y74504034D01*
X43295576Y74504034D01*
X43311587Y74414578D01*
X43379019Y74366685D01*
X43442654Y74469954D01*
X43498656Y74642660D01*
X43512715Y74715310D01*
X43469366Y74729319D01*
X43381648Y74659935D01*
X43295576Y74504034D01*
X41854311Y74504034D01*
X41786122Y74620730D01*
X41710044Y74791405D01*
X41713206Y74895897D01*
X41708310Y74999679D01*
X41671983Y75014667D01*
X41520556Y75042961D01*
X41452434Y75065607D01*
X41337888Y75050825D01*
X41240584Y74900546D01*
X41152949Y74600570D01*
X41120375Y74443167D01*
X41067566Y74168000D01*
X40886040Y74168000D01*
X40974214Y74485500D01*
X41044803Y74777146D01*
X41052439Y74941262D01*
X40995453Y75008172D01*
X40945104Y75014667D01*
X40828553Y75067460D01*
X40675361Y75198223D01*
X40521443Y75365535D01*
X40437536Y75480334D01*
X43518666Y75480334D01*
X43561000Y75438000D01*
X43603333Y75480334D01*
X43561000Y75522667D01*
X43518666Y75480334D01*
X40437536Y75480334D01*
X40402715Y75527975D01*
X40355091Y75644121D01*
X40373624Y75673764D01*
X40429721Y75724797D01*
X43293770Y75724797D01*
X43307000Y75692000D01*
X43383082Y75611230D01*
X43396663Y75607334D01*
X43433029Y75672840D01*
X43434000Y75692000D01*
X43368912Y75773414D01*
X43344336Y75776667D01*
X43293770Y75724797D01*
X40429721Y75724797D01*
X40465655Y75757487D01*
X40470666Y75783723D01*
X40392925Y75820819D01*
X40187281Y75848261D01*
X39895101Y75860994D01*
X39835666Y75861334D01*
X39200666Y75861334D01*
X39031333Y75861334D01*
X38569650Y75861334D01*
X38263532Y75843068D01*
X37994414Y75796472D01*
X37890020Y75762030D01*
X37701458Y75705104D01*
X37579080Y75755893D01*
X37572770Y75762030D01*
X37414088Y75840759D01*
X37269674Y75861334D01*
X37123802Y75832668D01*
X37115384Y75732458D01*
X36244592Y75732458D01*
X36198173Y75752813D01*
X35932587Y75837923D01*
X35792833Y75859915D01*
X35633115Y75840594D01*
X35569885Y75745649D01*
X35560000Y75580368D01*
X35379731Y75580368D01*
X35331072Y75819000D01*
X34433938Y75871064D01*
X34201590Y75871064D01*
X34206311Y76230567D01*
X34208624Y76260964D01*
X34434497Y76260964D01*
X34455394Y76112865D01*
X34534192Y76031116D01*
X34535061Y76030606D01*
X34738329Y75968376D01*
X34997550Y75952567D01*
X35221209Y75985618D01*
X35276825Y76010844D01*
X35326381Y76118407D01*
X35342695Y76195236D01*
X35533937Y76195236D01*
X35573810Y76057114D01*
X35577873Y76051834D01*
X35695275Y75956267D01*
X35831733Y75988763D01*
X35888003Y76022285D01*
X35951879Y76097943D01*
X35936834Y76163320D01*
X36538062Y76163320D01*
X36538805Y76019945D01*
X36559913Y75990310D01*
X36692584Y75952362D01*
X36828375Y76031643D01*
X36899388Y76179699D01*
X36893515Y76231045D01*
X37084000Y76231045D01*
X37110461Y76063697D01*
X37168519Y75984850D01*
X37226186Y76026602D01*
X37240106Y76074398D01*
X37217122Y76249163D01*
X37176606Y76310594D01*
X37103729Y76341348D01*
X37084000Y76231045D01*
X36893515Y76231045D01*
X36882257Y76329468D01*
X36802582Y76355684D01*
X37434180Y76355684D01*
X37438829Y76153141D01*
X37555744Y76023755D01*
X37613166Y76005753D01*
X37966645Y75965873D01*
X38368986Y75960651D01*
X38721067Y75990676D01*
X38766750Y75998917D01*
X39031333Y76051834D01*
X39031333Y76844073D01*
X39200666Y76844073D01*
X39202744Y76453216D01*
X39224852Y76200636D01*
X39290797Y76055318D01*
X39424390Y75986249D01*
X39649439Y75962414D01*
X39882557Y75955822D01*
X40141354Y75967249D01*
X40328578Y76040911D01*
X40460176Y76155102D01*
X43032564Y76155102D01*
X43049518Y76120967D01*
X43130251Y76033434D01*
X43145102Y76095163D01*
X43124549Y76161319D01*
X43062216Y76253525D01*
X43034062Y76251618D01*
X43032564Y76155102D01*
X40460176Y76155102D01*
X40524952Y76211309D01*
X40557060Y76244116D01*
X40738003Y76455478D01*
X40818280Y76644122D01*
X40830678Y76891562D01*
X40829501Y76921449D01*
X40830299Y76979730D01*
X41334321Y76979730D01*
X41358100Y76898774D01*
X41518633Y76877334D01*
X41719176Y76828818D01*
X41821410Y76755061D01*
X41969490Y76664846D01*
X42199092Y76604314D01*
X42233944Y76599960D01*
X42457011Y76574692D01*
X42602840Y76555057D01*
X42614708Y76552900D01*
X42660194Y76607657D01*
X42656311Y76686834D01*
X42641376Y76708000D01*
X42841333Y76708000D01*
X42870220Y76625535D01*
X42878669Y76623334D01*
X42950955Y76682663D01*
X42968333Y76708000D01*
X42961620Y76786019D01*
X42930996Y76792667D01*
X42844778Y76731207D01*
X42841333Y76708000D01*
X42641376Y76708000D01*
X42582036Y76792094D01*
X42388072Y76848588D01*
X42262044Y76861380D01*
X42023233Y76896200D01*
X41934523Y76959660D01*
X41938574Y76999010D01*
X41904136Y77112820D01*
X41784427Y77199945D01*
X41606812Y77242987D01*
X41467126Y77156121D01*
X41452461Y77140315D01*
X41334321Y76979730D01*
X40830299Y76979730D01*
X40832853Y77165971D01*
X40878123Y77279715D01*
X40944373Y77300667D01*
X41043907Y77364249D01*
X41047371Y77448834D01*
X41014271Y77515773D01*
X40925673Y77561224D01*
X40751947Y77590629D01*
X40463464Y77609429D01*
X40109829Y77621032D01*
X39200666Y77645063D01*
X39200666Y76844073D01*
X39031333Y76844073D01*
X39031333Y77639334D01*
X38744058Y77639334D01*
X38512808Y77602065D01*
X38408048Y77512334D01*
X38297337Y77399742D01*
X38234019Y77385334D01*
X38077616Y77325147D01*
X37892276Y77181434D01*
X37737792Y77009469D01*
X37673973Y76867625D01*
X37623675Y76711379D01*
X37546973Y76585985D01*
X37434180Y76355684D01*
X36802582Y76355684D01*
X36761096Y76369334D01*
X36625623Y76305148D01*
X36538062Y76163320D01*
X35936834Y76163320D01*
X35923278Y76222224D01*
X35848582Y76359656D01*
X35731997Y76533210D01*
X35645641Y76620782D01*
X35636282Y76623334D01*
X35572640Y76551412D01*
X35536036Y76384358D01*
X35533937Y76195236D01*
X35342695Y76195236D01*
X35376563Y76354728D01*
X35419771Y76679435D01*
X35435912Y76856215D01*
X35497174Y77639334D01*
X35118655Y77639334D01*
X34882298Y77630369D01*
X34755673Y77574679D01*
X34679218Y77429066D01*
X34635063Y77288631D01*
X34554686Y76976920D01*
X34481803Y76625176D01*
X34464556Y76523995D01*
X34434497Y76260964D01*
X34208624Y76260964D01*
X34246899Y76763937D01*
X34319568Y77204670D01*
X34332938Y77257956D01*
X34552549Y77842058D01*
X34922187Y77842058D01*
X35015969Y77751390D01*
X35200782Y77764235D01*
X35374112Y77811711D01*
X35449618Y77839397D01*
X35448016Y77925030D01*
X35425284Y78125264D01*
X35404009Y78277015D01*
X35389683Y78373327D01*
X37523488Y78373327D01*
X37614534Y78319732D01*
X37667608Y78316667D01*
X37834335Y78390955D01*
X37920548Y78603896D01*
X37930666Y78746925D01*
X37974916Y78888392D01*
X38089883Y78909446D01*
X38248893Y78828200D01*
X38425272Y78662766D01*
X38592345Y78431253D01*
X38694090Y78228563D01*
X38761016Y78026886D01*
X38741459Y77930774D01*
X38708868Y77912846D01*
X38644220Y77835189D01*
X38654802Y77801436D01*
X38714564Y77733420D01*
X38811017Y77743737D01*
X38897408Y77775392D01*
X38990986Y77900265D01*
X39027629Y78152698D01*
X39200666Y78152698D01*
X39212443Y77935739D01*
X39274922Y77833438D01*
X39428828Y77791413D01*
X39475833Y77785248D01*
X40019063Y77739185D01*
X40409438Y77754514D01*
X40644679Y77831100D01*
X40676285Y77857048D01*
X40776702Y78049343D01*
X40787391Y78289214D01*
X40722344Y78520973D01*
X40595555Y78688935D01*
X40454419Y78740000D01*
X40303837Y78797813D01*
X40234161Y78925876D01*
X40274535Y79056127D01*
X40307710Y79082609D01*
X40375352Y79176199D01*
X40358530Y79219025D01*
X40245498Y79230911D01*
X40129298Y79181295D01*
X39946341Y79098137D01*
X39845178Y79078667D01*
X39729805Y79011486D01*
X39589633Y78844106D01*
X39550551Y78782334D01*
X39420791Y78595729D01*
X39311110Y78492947D01*
X39288188Y78486000D01*
X39233025Y78410975D01*
X39202689Y78223889D01*
X39200666Y78152698D01*
X39027629Y78152698D01*
X39031021Y78176064D01*
X39016831Y78592842D01*
X38977491Y78939850D01*
X38934091Y79256492D01*
X40568764Y79256492D01*
X40603982Y79153163D01*
X40682333Y79078667D01*
X40783963Y78914164D01*
X40809333Y78773919D01*
X40884321Y78566531D01*
X41021000Y78435881D01*
X41172669Y78305984D01*
X41232666Y78196863D01*
X41299276Y78024781D01*
X41455635Y77953250D01*
X41579588Y77982419D01*
X41728356Y78085496D01*
X41778720Y78140410D01*
X41751411Y78232000D01*
X42037000Y78232000D01*
X42043712Y78153982D01*
X42074336Y78147334D01*
X42160554Y78208794D01*
X42164000Y78232000D01*
X42135113Y78314466D01*
X42126663Y78316667D01*
X42054377Y78257338D01*
X42037000Y78232000D01*
X41751411Y78232000D01*
X41750259Y78235862D01*
X41618037Y78368275D01*
X41594082Y78386332D01*
X41523082Y78443667D01*
X42248666Y78443667D01*
X42291000Y78401334D01*
X42333333Y78443667D01*
X42291000Y78486000D01*
X42248666Y78443667D01*
X41523082Y78443667D01*
X41443586Y78507862D01*
X41433381Y78542445D01*
X42530888Y78542445D01*
X42542511Y78492111D01*
X42587333Y78486000D01*
X42657023Y78516979D01*
X42643777Y78542445D01*
X42543298Y78552578D01*
X42530888Y78542445D01*
X41433381Y78542445D01*
X41417797Y78595250D01*
X41492708Y78697667D01*
X42079333Y78697667D01*
X42121666Y78655334D01*
X42164000Y78697667D01*
X42121666Y78740000D01*
X42079333Y78697667D01*
X41492708Y78697667D01*
X41501136Y78709189D01*
X41508979Y78717878D01*
X41634291Y78891047D01*
X41625928Y79032093D01*
X41515877Y79177834D01*
X41349756Y79280501D01*
X41684769Y79280501D01*
X41698333Y79248000D01*
X41810492Y79166495D01*
X41835326Y79163334D01*
X41881230Y79215500D01*
X41867666Y79248000D01*
X41755507Y79329506D01*
X41730673Y79332667D01*
X41684769Y79280501D01*
X41349756Y79280501D01*
X41335661Y79289212D01*
X41040514Y79331557D01*
X40965544Y79332667D01*
X40687276Y79314524D01*
X40568764Y79256492D01*
X38934091Y79256492D01*
X38923650Y79332667D01*
X38482614Y79332667D01*
X38181097Y79312136D01*
X37971420Y79228285D01*
X37804259Y79047727D01*
X37644543Y78765372D01*
X37533929Y78513368D01*
X37523488Y78373327D01*
X35389683Y78373327D01*
X35355692Y78601826D01*
X37258958Y78601826D01*
X37324409Y78570667D01*
X37406116Y78639324D01*
X37500828Y78801868D01*
X37568242Y78958415D01*
X37549567Y78976775D01*
X37429751Y78873413D01*
X37287761Y78712177D01*
X37258958Y78601826D01*
X35355692Y78601826D01*
X35341434Y78697667D01*
X35106015Y78329956D01*
X34951795Y78037346D01*
X34922187Y77842058D01*
X34552549Y77842058D01*
X34624444Y78033275D01*
X35061688Y78751426D01*
X35625433Y79393418D01*
X35864087Y79587911D01*
X38184666Y79587911D01*
X38260811Y79538904D01*
X38455502Y79507799D01*
X38608000Y79502000D01*
X39031333Y79502000D01*
X39031333Y79671334D01*
X40640000Y79671334D01*
X40689608Y79538549D01*
X40851666Y79502000D01*
X41010797Y79529970D01*
X41063333Y79583688D01*
X40997773Y79677343D01*
X40853291Y79780295D01*
X40708188Y79838950D01*
X40687899Y79840667D01*
X40648927Y79769487D01*
X40640000Y79671334D01*
X39031333Y79671334D01*
X39031333Y79787967D01*
X38992170Y80022313D01*
X38927133Y80133445D01*
X40768532Y80133445D01*
X40839728Y80030948D01*
X40989504Y79893193D01*
X41184442Y79745935D01*
X41391126Y79614929D01*
X41576140Y79525930D01*
X41682163Y79502230D01*
X41840810Y79527131D01*
X41866576Y79588431D01*
X41754617Y79688749D01*
X41543101Y79826982D01*
X41286334Y79973002D01*
X41038626Y80096683D01*
X40854283Y80167898D01*
X40809333Y80174929D01*
X40768532Y80133445D01*
X38927133Y80133445D01*
X38896465Y80185848D01*
X38895016Y80187066D01*
X38797962Y80238295D01*
X38692608Y80201697D01*
X38537403Y80057637D01*
X38471683Y79987010D01*
X38305805Y79790098D01*
X38202145Y79636434D01*
X38184666Y79587911D01*
X35864087Y79587911D01*
X35968945Y79673365D01*
X37315029Y79673365D01*
X37339768Y79632847D01*
X37499419Y79626257D01*
X37582226Y79628047D01*
X37778262Y79649248D01*
X37941850Y79721181D01*
X38121220Y79873529D01*
X38312047Y80077208D01*
X38495939Y80292642D01*
X38611289Y80449670D01*
X38635627Y80517339D01*
X38632031Y80518000D01*
X38514807Y80474508D01*
X38302745Y80362138D01*
X38040472Y80208052D01*
X37772613Y80039411D01*
X37543796Y79883376D01*
X37399191Y79767647D01*
X37315029Y79673365D01*
X35968945Y79673365D01*
X36196625Y79858913D01*
X36795218Y79858913D01*
X36833602Y79793994D01*
X36892826Y79732709D01*
X36959695Y79717337D01*
X37066748Y79761132D01*
X37246524Y79877349D01*
X37528500Y80077052D01*
X37743929Y80235856D01*
X37889881Y80352628D01*
X37930666Y80395187D01*
X37861141Y80392036D01*
X37684257Y80337942D01*
X37447553Y80250377D01*
X37198567Y80146814D01*
X37002967Y80054213D01*
X36830984Y79947370D01*
X36795218Y79858913D01*
X36196625Y79858913D01*
X36296445Y79940261D01*
X37055487Y80372966D01*
X37755533Y80636843D01*
X38206522Y80725735D01*
X38757670Y80769435D01*
X39346092Y80768486D01*
D12*
X22225000Y13970000D03*
X27305000Y13970000D03*
X24765000Y13970000D03*
X22225000Y27940000D03*
X27305000Y27940000D03*
D13*
X30480000Y20955000D03*
X19050000Y20955000D03*
D14*
X28575000Y84455000D03*
D15*
X26035000Y84455000D03*
X23495000Y84455000D03*
X20955000Y84455000D03*
D16*
X15875000Y29210000D03*
X10775000Y28210000D03*
D15*
X39370000Y28575000D03*
X39370000Y20955000D03*
D17*
X6985000Y33020000D03*
X9525000Y33020000D03*
X12065000Y33020000D03*
X14605000Y33020000D03*
X17145000Y33020000D03*
X19685000Y33020000D03*
X22225000Y33020000D03*
X24765000Y33020000D03*
X27305000Y33020000D03*
X29845000Y33020000D03*
X32385000Y33020000D03*
X34925000Y33020000D03*
X37465000Y33020000D03*
X40005000Y33020000D03*
X42545000Y33020000D03*
X6985000Y55880000D03*
X37465000Y55880000D03*
X40005000Y55880000D03*
X34925000Y55880000D03*
X19685000Y55880000D03*
X17145000Y55880000D03*
X22225000Y55880000D03*
X42545000Y55880000D03*
X27305000Y55880000D03*
X24765000Y55880000D03*
X29845000Y55880000D03*
X32385000Y55880000D03*
X12065000Y55880000D03*
X14605000Y55880000D03*
X9525000Y55880000D03*
D18*
X15240000Y24130000D03*
X15240000Y14732000D03*
D19*
X3784600Y19692620D03*
X3810000Y16685000D03*
X3810000Y22685000D03*
D20*
X3810000Y13385000D03*
X3810000Y25985000D03*
D16*
X4445000Y90170000D03*
X9525000Y90170000D03*
X13335000Y90170000D03*
X18415000Y90170000D03*
X22225000Y90170000D03*
X27305000Y90170000D03*
X31115000Y90170000D03*
X36195000Y90170000D03*
X40005000Y90170000D03*
X45085000Y90170000D03*
D18*
X11430000Y24130000D03*
X11430000Y14732000D03*
D21*
X43030000Y14699000D03*
X43030000Y15349000D03*
X43030000Y15999000D03*
X43030000Y16649000D03*
X43030000Y17299000D03*
D22*
X43580000Y11049000D03*
X43580000Y20949000D03*
D23*
X47580000Y11049000D03*
X47580000Y20949000D03*
D24*
X19685000Y72390000D03*
D25*
X22225000Y72390000D03*
X24765000Y72390000D03*
X27305000Y72390000D03*
X29845000Y72390000D03*
D26*
X4445000Y78232000D03*
D27*
X4445000Y73152000D03*
X4445000Y68072000D03*
X4445000Y62992000D03*
D28*
X42545000Y36195000D03*
X40005000Y36195000D03*
X37465000Y36195000D03*
X34925000Y36195000D03*
X32385000Y36195000D03*
D29*
X6985000Y36195000D03*
D28*
X9525000Y36195000D03*
X12065000Y36195000D03*
X14605000Y36195000D03*
X17145000Y36195000D03*
X19685000Y36195000D03*
X22225000Y36195000D03*
X24765000Y36195000D03*
X27305000Y36195000D03*
X29845000Y36195000D03*
X6985000Y52705000D03*
X9525000Y52705000D03*
X12065000Y52705000D03*
X14605000Y52705000D03*
X17145000Y52705000D03*
D29*
X42545000Y52705000D03*
D28*
X40005000Y52705000D03*
X37465000Y52705000D03*
X34925000Y52705000D03*
X32385000Y52705000D03*
X29845000Y52705000D03*
X27305000Y52705000D03*
X24765000Y52705000D03*
X22225000Y52705000D03*
X19685000Y52705000D03*
D30*
X39116000Y75946000D03*
D26*
X33020000Y5715000D03*
D27*
X38100000Y5715000D03*
D31*
X9485000Y93650000D03*
X9485000Y96850000D03*
X4485000Y93650000D03*
X4485000Y96850000D03*
X18375000Y93650000D03*
X18375000Y96850000D03*
X13375000Y93650000D03*
X13375000Y96850000D03*
X27265000Y93650000D03*
X27265000Y96850000D03*
X22265000Y93650000D03*
X22265000Y96850000D03*
X36155000Y93650000D03*
X36155000Y96850000D03*
X31155000Y93650000D03*
X31155000Y96850000D03*
X45045000Y93650000D03*
X45045000Y96850000D03*
X40045000Y93650000D03*
X40045000Y96850000D03*
D15*
X44450000Y26035000D03*
D14*
X46990000Y26035000D03*
D32*
X17305000Y68895000D03*
X17305000Y66995000D03*
X14605000Y68895000D03*
X14605000Y67945000D03*
X14605000Y66995000D03*
D24*
X22225000Y61468000D03*
D25*
X24765000Y61468000D03*
X27305000Y61468000D03*
X29845000Y61468000D03*
X32385000Y61468000D03*
D33*
X36703000Y17018000D03*
X16637000Y40767000D03*
X21209000Y67056000D03*
X25654000Y69342000D03*
X38735000Y49403000D03*
D34*
X4485000Y96850000D02*
X4485000Y98298000D01*
X4572000Y98171000D02*
X4572000Y98298000D01*
X4572000Y98211000D02*
X4572000Y98171000D01*
X4485000Y98298000D02*
X4572000Y98211000D01*
X4445000Y90170000D02*
X3302000Y90170000D01*
X3556000Y98298000D02*
X4572000Y98298000D01*
X4572000Y98298000D02*
X5207000Y98298000D01*
X1778000Y96520000D02*
X3556000Y98298000D01*
X1778000Y91694000D02*
X1778000Y96520000D01*
X3302000Y90170000D02*
X1778000Y91694000D01*
X13375000Y96850000D02*
X13375000Y98298000D01*
X13462000Y98171000D02*
X13462000Y98298000D01*
X13462000Y98211000D02*
X13462000Y98171000D01*
X13375000Y98298000D02*
X13462000Y98211000D01*
X22265000Y96850000D02*
X22265000Y98298000D01*
X22352000Y98044000D02*
X22352000Y98298000D01*
X22352000Y98211000D02*
X22352000Y98044000D01*
X22265000Y98298000D02*
X22352000Y98211000D01*
X31155000Y96850000D02*
X31155000Y98298000D01*
X31242000Y98171000D02*
X31242000Y98298000D01*
X31242000Y98211000D02*
X31242000Y98171000D01*
X31155000Y98298000D02*
X31242000Y98211000D01*
X40045000Y97623000D02*
X40045000Y96850000D01*
X39370000Y98298000D02*
X40045000Y97623000D01*
X5207000Y98298000D02*
X13462000Y98298000D01*
X13462000Y98298000D02*
X22352000Y98298000D01*
X22352000Y98298000D02*
X31242000Y98298000D01*
X31242000Y98298000D02*
X39370000Y98298000D01*
X10033000Y86360000D02*
X9779000Y86360000D01*
X9779000Y86360000D02*
X5969000Y90170000D01*
X5969000Y90170000D02*
X4445000Y90170000D01*
X17305000Y68895000D02*
X17305000Y69690000D01*
X14097000Y86360000D02*
X10033000Y86360000D01*
X16002000Y84455000D02*
X14097000Y86360000D01*
X16002000Y70993000D02*
X16002000Y84455000D01*
X17305000Y69690000D02*
X16002000Y70993000D01*
D35*
X30988000Y30226000D02*
X26162000Y30226000D01*
X24765000Y28829000D02*
X24765000Y13970000D01*
X26162000Y30226000D02*
X24765000Y28829000D01*
D34*
X18415000Y92075000D02*
X27051000Y92075000D01*
X27051000Y92075000D02*
X27178000Y91948000D01*
X9525000Y92075000D02*
X18415000Y92075000D01*
X18415000Y92075000D02*
X18288000Y92075000D01*
X18288000Y92075000D02*
X18415000Y92075000D01*
X18415000Y90170000D02*
X18415000Y92075000D01*
X18415000Y92075000D02*
X18415000Y93610000D01*
X18415000Y93610000D02*
X18375000Y93650000D01*
X9525000Y90170000D02*
X9525000Y92075000D01*
X9525000Y92075000D02*
X9525000Y93610000D01*
X9525000Y93610000D02*
X9485000Y93650000D01*
X18415000Y93610000D02*
X18375000Y93650000D01*
X36068000Y91948000D02*
X45085000Y91948000D01*
X45085000Y91948000D02*
X44958000Y91948000D01*
X44958000Y91948000D02*
X45085000Y91948000D01*
X27178000Y91948000D02*
X36195000Y91948000D01*
X36195000Y91948000D02*
X36068000Y91948000D01*
X36068000Y91948000D02*
X36195000Y91948000D01*
X27305000Y91948000D02*
X27178000Y91948000D01*
X27178000Y91948000D02*
X27305000Y91948000D01*
X27305000Y90170000D02*
X27305000Y91948000D01*
X27305000Y91948000D02*
X27305000Y93610000D01*
X27305000Y93610000D02*
X27265000Y93650000D01*
X45085000Y90170000D02*
X45085000Y91948000D01*
X45085000Y91948000D02*
X45085000Y93610000D01*
X45085000Y93610000D02*
X45045000Y93650000D01*
D35*
X40259000Y17907000D02*
X36703000Y17907000D01*
X36703000Y23495000D02*
X45974000Y23495000D01*
X46990000Y24511000D02*
X46990000Y26035000D01*
X45974000Y23495000D02*
X46990000Y24511000D01*
D36*
X43030000Y17299000D02*
X40867000Y17299000D01*
X40867000Y17299000D02*
X40259000Y17907000D01*
D34*
X14605000Y66995000D02*
X14605000Y65405000D01*
X14605000Y65405000D02*
X22225000Y57785000D01*
X22225000Y57785000D02*
X22225000Y55880000D01*
D35*
X36703000Y17018000D02*
X36703000Y17907000D01*
X36703000Y17907000D02*
X36703000Y17653000D01*
X36703000Y17653000D02*
X36703000Y18923000D01*
X29845000Y33020000D02*
X29845000Y30226000D01*
X29845000Y30226000D02*
X29845000Y30480000D01*
X29845000Y30480000D02*
X29845000Y30226000D01*
X29845000Y30226000D02*
X30988000Y30226000D01*
X30988000Y30226000D02*
X31750000Y30226000D01*
X31750000Y30226000D02*
X36703000Y30226000D01*
X36703000Y30226000D02*
X39243000Y30226000D01*
X39243000Y30226000D02*
X40005000Y30988000D01*
X40005000Y30988000D02*
X40005000Y33020000D01*
X29845000Y33020000D02*
X29845000Y32131000D01*
X36703000Y18923000D02*
X36703000Y23495000D01*
X36703000Y23495000D02*
X36703000Y24892000D01*
X36703000Y24892000D02*
X36703000Y30226000D01*
D34*
X45085000Y93610000D02*
X45045000Y93650000D01*
X36195000Y90170000D02*
X36195000Y91948000D01*
X36195000Y91948000D02*
X36195000Y93610000D01*
X36195000Y93610000D02*
X36155000Y93650000D01*
X27305000Y93610000D02*
X27265000Y93650000D01*
X9525000Y93610000D02*
X9485000Y93650000D01*
X18415000Y93610000D02*
X18375000Y93650000D01*
D35*
X18415000Y93610000D02*
X18375000Y93650000D01*
D34*
X42418000Y28575000D02*
X39370000Y28575000D01*
X44323000Y30480000D02*
X42418000Y28575000D01*
X44323000Y38227000D02*
X44323000Y30480000D01*
X41656000Y40894000D02*
X44323000Y38227000D01*
X16764000Y40894000D02*
X41656000Y40894000D01*
X16637000Y40767000D02*
X16764000Y40894000D01*
X14605000Y55880000D02*
X14605000Y58039000D01*
X14605000Y58039000D02*
X16129000Y59563000D01*
X16129000Y59563000D02*
X16129000Y62357000D01*
X16129000Y62357000D02*
X12573000Y65913000D01*
X12573000Y65913000D02*
X12573000Y67437000D01*
X12573000Y67437000D02*
X13081000Y67945000D01*
X13081000Y67945000D02*
X14605000Y67945000D01*
D35*
X27305000Y61468000D02*
X27305000Y67691000D01*
X27305000Y67691000D02*
X27305000Y67564000D01*
X27305000Y67564000D02*
X27305000Y67691000D01*
X26035000Y84455000D02*
X26035000Y79756000D01*
X26035000Y79756000D02*
X27305000Y78486000D01*
X27305000Y78486000D02*
X32131000Y73660000D01*
X32131000Y73660000D02*
X32131000Y70612000D01*
X32131000Y70612000D02*
X29210000Y67691000D01*
X29210000Y67691000D02*
X27305000Y67691000D01*
X27305000Y67691000D02*
X21844000Y67691000D01*
X21844000Y67691000D02*
X21209000Y67056000D01*
D34*
X21209000Y67056000D02*
X21844000Y67691000D01*
X21844000Y67691000D02*
X29210000Y67691000D01*
X29210000Y67691000D02*
X32131000Y70612000D01*
D35*
X19685000Y52705000D02*
X19685000Y51689000D01*
X4445000Y59817000D02*
X4445000Y62992000D01*
X5207000Y59055000D02*
X4445000Y59817000D01*
X5207000Y51943000D02*
X5207000Y59055000D01*
X6985000Y50165000D02*
X5207000Y51943000D01*
X18161000Y50165000D02*
X6985000Y50165000D01*
X19685000Y51689000D02*
X18161000Y50165000D01*
X42037000Y49403000D02*
X42545000Y49911000D01*
X42545000Y49911000D02*
X42545000Y52705000D01*
X25654000Y69342000D02*
X29083000Y69342000D01*
X29083000Y69342000D02*
X29972000Y70231000D01*
X29972000Y70231000D02*
X29972000Y72263000D01*
X29972000Y72263000D02*
X29845000Y72390000D01*
X38735000Y49403000D02*
X42037000Y49403000D01*
D34*
X4445000Y73152000D02*
X6096000Y73152000D01*
X6096000Y73152000D02*
X10795000Y68453000D01*
X10795000Y68453000D02*
X10795000Y58674000D01*
X10795000Y58674000D02*
X12065000Y57404000D01*
X12065000Y57404000D02*
X12065000Y55880000D01*
X4445000Y68072000D02*
X6477000Y68072000D01*
X6477000Y68072000D02*
X9525000Y65024000D01*
X9525000Y65024000D02*
X9525000Y55880000D01*
D36*
X43030000Y14699000D02*
X41115000Y14699000D01*
D35*
X15240000Y12192000D02*
X16764000Y10668000D01*
X16764000Y10668000D02*
X34671000Y10668000D01*
X34671000Y10668000D02*
X38608000Y14605000D01*
X38608000Y14605000D02*
X41021000Y14605000D01*
X15240000Y12192000D02*
X15240000Y14732000D01*
D34*
X41115000Y14699000D02*
X41021000Y14605000D01*
X5080000Y92075000D02*
X6858000Y92075000D01*
X7747000Y91186000D02*
X7747000Y89662000D01*
X6858000Y92075000D02*
X7747000Y91186000D01*
X8191500Y89217500D02*
X7747000Y89662000D01*
X8191500Y89217500D02*
X10160000Y87249000D01*
X18481000Y66995000D02*
X17305000Y66995000D01*
X19050000Y67564000D02*
X18481000Y66995000D01*
X19050000Y69469000D02*
X19050000Y67564000D01*
X16891000Y71628000D02*
X19050000Y69469000D01*
X16891000Y84709000D02*
X16891000Y71628000D01*
X14351000Y87249000D02*
X16891000Y84709000D01*
X10160000Y87249000D02*
X14351000Y87249000D01*
X7315000Y96850000D02*
X9485000Y96850000D01*
X5969000Y95504000D02*
X7315000Y96850000D01*
X4064000Y95504000D02*
X5969000Y95504000D01*
X2921000Y94361000D02*
X4064000Y95504000D01*
X2921000Y92710000D02*
X2921000Y94361000D01*
X3556000Y92075000D02*
X2921000Y92710000D01*
X5080000Y92075000D02*
X3556000Y92075000D01*
X4191000Y43180000D02*
X4191000Y44069000D01*
X4191000Y44069000D02*
X6350000Y46228000D01*
X4191000Y43180000D02*
X4191000Y30226000D01*
X22225000Y13970000D02*
X20955000Y13970000D01*
X20955000Y13970000D02*
X16764000Y18161000D01*
X16764000Y18161000D02*
X10668000Y18161000D01*
X10668000Y18161000D02*
X7747000Y21082000D01*
X7747000Y21082000D02*
X7747000Y26670000D01*
X7747000Y26670000D02*
X4191000Y30226000D01*
X29845000Y49657000D02*
X29845000Y52705000D01*
X26416000Y46228000D02*
X29845000Y49657000D01*
X6350000Y46228000D02*
X26416000Y46228000D01*
X3048000Y30226000D02*
X3048000Y44323000D01*
X3048000Y44323000D02*
X5969000Y47244000D01*
X27305000Y12954000D02*
X27305000Y13970000D01*
X3048000Y30226000D02*
X6858000Y26416000D01*
X6858000Y26416000D02*
X6858000Y20701000D01*
X6858000Y20701000D02*
X10287000Y17272000D01*
X10287000Y17272000D02*
X16256000Y17272000D01*
X16256000Y17272000D02*
X18415000Y15113000D01*
X18415000Y15113000D02*
X18415000Y13208000D01*
X18415000Y13208000D02*
X19558000Y12065000D01*
X19558000Y12065000D02*
X26416000Y12065000D01*
X26416000Y12065000D02*
X27305000Y12954000D01*
X27305000Y52705000D02*
X27305000Y49403000D01*
X27305000Y49403000D02*
X25146000Y47244000D01*
X25146000Y47244000D02*
X5969000Y47244000D01*
X5207000Y42672000D02*
X5207000Y43434000D01*
X5207000Y43434000D02*
X6858000Y45085000D01*
X6858000Y45085000D02*
X8509000Y45085000D01*
X32385000Y52705000D02*
X32385000Y49657000D01*
X22225000Y29464000D02*
X22225000Y27940000D01*
X20701000Y30988000D02*
X22225000Y29464000D01*
X5969000Y30988000D02*
X20701000Y30988000D01*
X5207000Y31750000D02*
X5969000Y30988000D01*
X5207000Y42672000D02*
X5207000Y31750000D01*
X6858000Y45085000D02*
X5207000Y43434000D01*
X27813000Y45085000D02*
X8509000Y45085000D01*
X8509000Y45085000D02*
X6858000Y45085000D01*
X32385000Y49657000D02*
X27813000Y45085000D01*
X11811000Y95758000D02*
X15113000Y95758000D01*
X16205000Y96850000D02*
X18375000Y96850000D01*
X15113000Y95758000D02*
X16205000Y96850000D01*
X4485000Y93650000D02*
X6020000Y93650000D01*
X8128000Y95758000D02*
X11811000Y95758000D01*
X11811000Y95758000D02*
X12700000Y95758000D01*
X6020000Y93650000D02*
X8128000Y95758000D01*
X4445000Y93610000D02*
X4485000Y93650000D01*
X13375000Y93650000D02*
X15545000Y93650000D01*
X15545000Y93650000D02*
X17526000Y95631000D01*
X27265000Y96226000D02*
X27265000Y96850000D01*
X26670000Y95631000D02*
X27265000Y96226000D01*
X17526000Y95631000D02*
X26670000Y95631000D01*
X13335000Y93610000D02*
X13375000Y93650000D01*
D35*
X13335000Y93610000D02*
X13375000Y93650000D01*
D34*
X22265000Y93650000D02*
X22265000Y94401000D01*
X36155000Y96099000D02*
X36155000Y96850000D01*
X35814000Y95758000D02*
X36155000Y96099000D01*
X28194000Y95758000D02*
X35814000Y95758000D01*
X27305000Y94869000D02*
X28194000Y95758000D01*
X22733000Y94869000D02*
X27305000Y94869000D01*
X22265000Y94401000D02*
X22733000Y94869000D01*
X22225000Y93610000D02*
X22265000Y93650000D01*
X31155000Y93650000D02*
X31155000Y94274000D01*
X45045000Y96099000D02*
X45045000Y96850000D01*
X44704000Y95758000D02*
X45045000Y96099000D01*
X37973000Y95758000D02*
X44704000Y95758000D01*
X37211000Y94996000D02*
X37973000Y95758000D01*
X31877000Y94996000D02*
X37211000Y94996000D01*
X31155000Y94274000D02*
X31877000Y94996000D01*
X31115000Y93610000D02*
X31155000Y93650000D01*
M02*
