G04 #@! TF.FileFunction,Legend,Bot*
%FSLAX46Y46*%
G04 Gerber Fmt 4.6, Leading zero omitted, Abs format (unit mm)*
G04 Created by KiCad (PCBNEW 4.0.5) date 12/07/17 20:38:25*
%MOMM*%
%LPD*%
G01*
G04 APERTURE LIST*
%ADD10C,0.500000*%
%ADD11C,0.175000*%
%ADD12C,0.300000*%
%ADD13C,0.271780*%
%ADD14C,0.254000*%
%ADD15C,0.150000*%
%ADD16C,0.088900*%
G04 APERTURE END LIST*
D10*
D11*
X32918333Y59786000D02*
X32984999Y59819333D01*
X33084999Y59819333D01*
X33184999Y59786000D01*
X33251666Y59719333D01*
X33284999Y59652667D01*
X33318333Y59519333D01*
X33318333Y59419333D01*
X33284999Y59286000D01*
X33251666Y59219333D01*
X33184999Y59152667D01*
X33084999Y59119333D01*
X33018333Y59119333D01*
X32918333Y59152667D01*
X32884999Y59186000D01*
X32884999Y59419333D01*
X33018333Y59419333D01*
X32584999Y59119333D02*
X32584999Y59819333D01*
X32184999Y59119333D01*
X32184999Y59819333D01*
X31851666Y59119333D02*
X31851666Y59819333D01*
X31685000Y59819333D01*
X31585000Y59786000D01*
X31518333Y59719333D01*
X31485000Y59652667D01*
X31451666Y59519333D01*
X31451666Y59419333D01*
X31485000Y59286000D01*
X31518333Y59219333D01*
X31585000Y59152667D01*
X31685000Y59119333D01*
X31851666Y59119333D01*
X30178333Y59819333D02*
X30511666Y59819333D01*
X30545000Y59486000D01*
X30511666Y59519333D01*
X30445000Y59552667D01*
X30278333Y59552667D01*
X30211666Y59519333D01*
X30178333Y59486000D01*
X30145000Y59419333D01*
X30145000Y59252667D01*
X30178333Y59186000D01*
X30211666Y59152667D01*
X30278333Y59119333D01*
X30445000Y59119333D01*
X30511666Y59152667D01*
X30545000Y59186000D01*
X29844999Y59186000D02*
X29811666Y59152667D01*
X29844999Y59119333D01*
X29878333Y59152667D01*
X29844999Y59186000D01*
X29844999Y59119333D01*
X29378333Y59819333D02*
X29311666Y59819333D01*
X29245000Y59786000D01*
X29211666Y59752667D01*
X29178333Y59686000D01*
X29145000Y59552667D01*
X29145000Y59386000D01*
X29178333Y59252667D01*
X29211666Y59186000D01*
X29245000Y59152667D01*
X29311666Y59119333D01*
X29378333Y59119333D01*
X29445000Y59152667D01*
X29478333Y59186000D01*
X29511666Y59252667D01*
X29545000Y59386000D01*
X29545000Y59552667D01*
X29511666Y59686000D01*
X29478333Y59752667D01*
X29445000Y59786000D01*
X29378333Y59819333D01*
X28138334Y59152667D02*
X28038334Y59119333D01*
X27871667Y59119333D01*
X27805000Y59152667D01*
X27771667Y59186000D01*
X27738334Y59252667D01*
X27738334Y59319333D01*
X27771667Y59386000D01*
X27805000Y59419333D01*
X27871667Y59452667D01*
X28005000Y59486000D01*
X28071667Y59519333D01*
X28105000Y59552667D01*
X28138334Y59619333D01*
X28138334Y59686000D01*
X28105000Y59752667D01*
X28071667Y59786000D01*
X28005000Y59819333D01*
X27838334Y59819333D01*
X27738334Y59786000D01*
X27038333Y59186000D02*
X27071667Y59152667D01*
X27171667Y59119333D01*
X27238333Y59119333D01*
X27338333Y59152667D01*
X27405000Y59219333D01*
X27438333Y59286000D01*
X27471667Y59419333D01*
X27471667Y59519333D01*
X27438333Y59652667D01*
X27405000Y59719333D01*
X27338333Y59786000D01*
X27238333Y59819333D01*
X27171667Y59819333D01*
X27071667Y59786000D01*
X27038333Y59752667D01*
X26405000Y59119333D02*
X26738333Y59119333D01*
X26738333Y59819333D01*
X25615000Y59152667D02*
X25515000Y59119333D01*
X25348333Y59119333D01*
X25281666Y59152667D01*
X25248333Y59186000D01*
X25215000Y59252667D01*
X25215000Y59319333D01*
X25248333Y59386000D01*
X25281666Y59419333D01*
X25348333Y59452667D01*
X25481666Y59486000D01*
X25548333Y59519333D01*
X25581666Y59552667D01*
X25615000Y59619333D01*
X25615000Y59686000D01*
X25581666Y59752667D01*
X25548333Y59786000D01*
X25481666Y59819333D01*
X25315000Y59819333D01*
X25215000Y59786000D01*
X24914999Y59119333D02*
X24914999Y59819333D01*
X24748333Y59819333D01*
X24648333Y59786000D01*
X24581666Y59719333D01*
X24548333Y59652667D01*
X24514999Y59519333D01*
X24514999Y59419333D01*
X24548333Y59286000D01*
X24581666Y59219333D01*
X24648333Y59152667D01*
X24748333Y59119333D01*
X24914999Y59119333D01*
X24248333Y59319333D02*
X23914999Y59319333D01*
X24314999Y59119333D02*
X24081666Y59819333D01*
X23848333Y59119333D01*
X22958333Y59819333D02*
X22525000Y59819333D01*
X22758333Y59552667D01*
X22658333Y59552667D01*
X22591666Y59519333D01*
X22558333Y59486000D01*
X22525000Y59419333D01*
X22525000Y59252667D01*
X22558333Y59186000D01*
X22591666Y59152667D01*
X22658333Y59119333D01*
X22858333Y59119333D01*
X22925000Y59152667D01*
X22958333Y59186000D01*
X22224999Y59186000D02*
X22191666Y59152667D01*
X22224999Y59119333D01*
X22258333Y59152667D01*
X22224999Y59186000D01*
X22224999Y59119333D01*
X21958333Y59819333D02*
X21525000Y59819333D01*
X21758333Y59552667D01*
X21658333Y59552667D01*
X21591666Y59519333D01*
X21558333Y59486000D01*
X21525000Y59419333D01*
X21525000Y59252667D01*
X21558333Y59186000D01*
X21591666Y59152667D01*
X21658333Y59119333D01*
X21858333Y59119333D01*
X21925000Y59152667D01*
X21958333Y59186000D01*
D12*
X6735000Y38298572D02*
X6735000Y39012858D01*
X6306429Y38155715D02*
X7806429Y38655715D01*
X6306429Y39155715D01*
X7806429Y39941429D02*
X7806429Y40084286D01*
X7735000Y40227143D01*
X7663571Y40298572D01*
X7520714Y40370001D01*
X7235000Y40441429D01*
X6877857Y40441429D01*
X6592143Y40370001D01*
X6449286Y40298572D01*
X6377857Y40227143D01*
X6306429Y40084286D01*
X6306429Y39941429D01*
X6377857Y39798572D01*
X6449286Y39727143D01*
X6592143Y39655715D01*
X6877857Y39584286D01*
X7235000Y39584286D01*
X7520714Y39655715D01*
X7663571Y39727143D01*
X7735000Y39798572D01*
X7806429Y39941429D01*
X43366429Y37834286D02*
X41866429Y38334286D01*
X43366429Y38834286D01*
X41866429Y39334286D02*
X42866429Y39334286D01*
X43366429Y39334286D02*
X43295000Y39262857D01*
X43223571Y39334286D01*
X43295000Y39405714D01*
X43366429Y39334286D01*
X43223571Y39334286D01*
X42866429Y40048572D02*
X41866429Y40048572D01*
X42723571Y40048572D02*
X42795000Y40120000D01*
X42866429Y40262858D01*
X42866429Y40477143D01*
X42795000Y40620000D01*
X42652143Y40691429D01*
X41866429Y40691429D01*
X43366429Y46680715D02*
X43366429Y47609286D01*
X42795000Y47109286D01*
X42795000Y47323572D01*
X42723571Y47466429D01*
X42652143Y47537858D01*
X42509286Y47609286D01*
X42152143Y47609286D01*
X42009286Y47537858D01*
X41937857Y47466429D01*
X41866429Y47323572D01*
X41866429Y46895000D01*
X41937857Y46752143D01*
X42009286Y46680715D01*
X42009286Y48252143D02*
X41937857Y48323571D01*
X41866429Y48252143D01*
X41937857Y48180714D01*
X42009286Y48252143D01*
X41866429Y48252143D01*
X43366429Y48823572D02*
X43366429Y49752143D01*
X42795000Y49252143D01*
X42795000Y49466429D01*
X42723571Y49609286D01*
X42652143Y49680715D01*
X42509286Y49752143D01*
X42152143Y49752143D01*
X42009286Y49680715D01*
X41937857Y49609286D01*
X41866429Y49466429D01*
X41866429Y49037857D01*
X41937857Y48895000D01*
X42009286Y48823572D01*
X43366429Y50180714D02*
X41866429Y50680714D01*
X43366429Y51180714D01*
X33206429Y37790715D02*
X33206429Y38719286D01*
X32635000Y38219286D01*
X32635000Y38433572D01*
X32563571Y38576429D01*
X32492143Y38647858D01*
X32349286Y38719286D01*
X31992143Y38719286D01*
X31849286Y38647858D01*
X31777857Y38576429D01*
X31706429Y38433572D01*
X31706429Y38005000D01*
X31777857Y37862143D01*
X31849286Y37790715D01*
X31849286Y39362143D02*
X31777857Y39433571D01*
X31706429Y39362143D01*
X31777857Y39290714D01*
X31849286Y39362143D01*
X31706429Y39362143D01*
X33206429Y39933572D02*
X33206429Y40862143D01*
X32635000Y40362143D01*
X32635000Y40576429D01*
X32563571Y40719286D01*
X32492143Y40790715D01*
X32349286Y40862143D01*
X31992143Y40862143D01*
X31849286Y40790715D01*
X31777857Y40719286D01*
X31706429Y40576429D01*
X31706429Y40147857D01*
X31777857Y40005000D01*
X31849286Y39933572D01*
X33206429Y41290714D02*
X31706429Y41790714D01*
X33206429Y42290714D01*
X40755000Y38862143D02*
X40826429Y38719286D01*
X40826429Y38505000D01*
X40755000Y38290715D01*
X40612143Y38147857D01*
X40469286Y38076429D01*
X40183571Y38005000D01*
X39969286Y38005000D01*
X39683571Y38076429D01*
X39540714Y38147857D01*
X39397857Y38290715D01*
X39326429Y38505000D01*
X39326429Y38647857D01*
X39397857Y38862143D01*
X39469286Y38933572D01*
X39969286Y38933572D01*
X39969286Y38647857D01*
X39326429Y39576429D02*
X40826429Y39576429D01*
X39326429Y40433572D01*
X40826429Y40433572D01*
X39326429Y41147858D02*
X40826429Y41147858D01*
X40826429Y41505001D01*
X40755000Y41719286D01*
X40612143Y41862144D01*
X40469286Y41933572D01*
X40183571Y42005001D01*
X39969286Y42005001D01*
X39683571Y41933572D01*
X39540714Y41862144D01*
X39397857Y41719286D01*
X39326429Y41505001D01*
X39326429Y41147858D01*
X30595000Y38862143D02*
X30666429Y38719286D01*
X30666429Y38505000D01*
X30595000Y38290715D01*
X30452143Y38147857D01*
X30309286Y38076429D01*
X30023571Y38005000D01*
X29809286Y38005000D01*
X29523571Y38076429D01*
X29380714Y38147857D01*
X29237857Y38290715D01*
X29166429Y38505000D01*
X29166429Y38647857D01*
X29237857Y38862143D01*
X29309286Y38933572D01*
X29809286Y38933572D01*
X29809286Y38647857D01*
X29166429Y39576429D02*
X30666429Y39576429D01*
X29166429Y40433572D01*
X30666429Y40433572D01*
X29166429Y41147858D02*
X30666429Y41147858D01*
X30666429Y41505001D01*
X30595000Y41719286D01*
X30452143Y41862144D01*
X30309286Y41933572D01*
X30023571Y42005001D01*
X29809286Y42005001D01*
X29523571Y41933572D01*
X29380714Y41862144D01*
X29237857Y41719286D01*
X29166429Y41505001D01*
X29166429Y41147858D01*
X40755000Y47752143D02*
X40826429Y47609286D01*
X40826429Y47395000D01*
X40755000Y47180715D01*
X40612143Y47037857D01*
X40469286Y46966429D01*
X40183571Y46895000D01*
X39969286Y46895000D01*
X39683571Y46966429D01*
X39540714Y47037857D01*
X39397857Y47180715D01*
X39326429Y47395000D01*
X39326429Y47537857D01*
X39397857Y47752143D01*
X39469286Y47823572D01*
X39969286Y47823572D01*
X39969286Y47537857D01*
X39326429Y48466429D02*
X40826429Y48466429D01*
X39326429Y49323572D01*
X40826429Y49323572D01*
X39326429Y50037858D02*
X40826429Y50037858D01*
X40826429Y50395001D01*
X40755000Y50609286D01*
X40612143Y50752144D01*
X40469286Y50823572D01*
X40183571Y50895001D01*
X39969286Y50895001D01*
X39683571Y50823572D01*
X39540714Y50752144D01*
X39397857Y50609286D01*
X39326429Y50395001D01*
X39326429Y50037858D01*
X38286429Y48494286D02*
X38286429Y49351429D01*
X36786429Y48922858D02*
X38286429Y48922858D01*
X36786429Y49708572D02*
X37786429Y50494286D01*
X37786429Y49708572D02*
X36786429Y50494286D01*
X34246429Y49387143D02*
X34960714Y48887143D01*
X34246429Y48530000D02*
X35746429Y48530000D01*
X35746429Y49101428D01*
X35675000Y49244286D01*
X35603571Y49315714D01*
X35460714Y49387143D01*
X35246429Y49387143D01*
X35103571Y49315714D01*
X35032143Y49244286D01*
X34960714Y49101428D01*
X34960714Y48530000D01*
X34246429Y49887143D02*
X35246429Y50672857D01*
X35246429Y49887143D02*
X34246429Y50672857D01*
X31706429Y48422858D02*
X33206429Y48422858D01*
X33206429Y48780001D01*
X33135000Y48994286D01*
X32992143Y49137144D01*
X32849286Y49208572D01*
X32563571Y49280001D01*
X32349286Y49280001D01*
X32063571Y49208572D01*
X31920714Y49137144D01*
X31777857Y48994286D01*
X31706429Y48780001D01*
X31706429Y48422858D01*
X32563571Y50137144D02*
X32635000Y49994286D01*
X32706429Y49922858D01*
X32849286Y49851429D01*
X32920714Y49851429D01*
X33063571Y49922858D01*
X33135000Y49994286D01*
X33206429Y50137144D01*
X33206429Y50422858D01*
X33135000Y50565715D01*
X33063571Y50637144D01*
X32920714Y50708572D01*
X32849286Y50708572D01*
X32706429Y50637144D01*
X32635000Y50565715D01*
X32563571Y50422858D01*
X32563571Y50137144D01*
X32492143Y49994286D01*
X32420714Y49922858D01*
X32277857Y49851429D01*
X31992143Y49851429D01*
X31849286Y49922858D01*
X31777857Y49994286D01*
X31706429Y50137144D01*
X31706429Y50422858D01*
X31777857Y50565715D01*
X31849286Y50637144D01*
X31992143Y50708572D01*
X32277857Y50708572D01*
X32420714Y50637144D01*
X32492143Y50565715D01*
X32563571Y50422858D01*
X29166429Y48422858D02*
X30666429Y48422858D01*
X30666429Y48780001D01*
X30595000Y48994286D01*
X30452143Y49137144D01*
X30309286Y49208572D01*
X30023571Y49280001D01*
X29809286Y49280001D01*
X29523571Y49208572D01*
X29380714Y49137144D01*
X29237857Y48994286D01*
X29166429Y48780001D01*
X29166429Y48422858D01*
X30666429Y49780001D02*
X30666429Y50780001D01*
X29166429Y50137144D01*
X26626429Y48422858D02*
X28126429Y48422858D01*
X28126429Y48780001D01*
X28055000Y48994286D01*
X27912143Y49137144D01*
X27769286Y49208572D01*
X27483571Y49280001D01*
X27269286Y49280001D01*
X26983571Y49208572D01*
X26840714Y49137144D01*
X26697857Y48994286D01*
X26626429Y48780001D01*
X26626429Y48422858D01*
X28126429Y50565715D02*
X28126429Y50280001D01*
X28055000Y50137144D01*
X27983571Y50065715D01*
X27769286Y49922858D01*
X27483571Y49851429D01*
X26912143Y49851429D01*
X26769286Y49922858D01*
X26697857Y49994286D01*
X26626429Y50137144D01*
X26626429Y50422858D01*
X26697857Y50565715D01*
X26769286Y50637144D01*
X26912143Y50708572D01*
X27269286Y50708572D01*
X27412143Y50637144D01*
X27483571Y50565715D01*
X27555000Y50422858D01*
X27555000Y50137144D01*
X27483571Y49994286D01*
X27412143Y49922858D01*
X27269286Y49851429D01*
X24086429Y48422858D02*
X25586429Y48422858D01*
X25586429Y48780001D01*
X25515000Y48994286D01*
X25372143Y49137144D01*
X25229286Y49208572D01*
X24943571Y49280001D01*
X24729286Y49280001D01*
X24443571Y49208572D01*
X24300714Y49137144D01*
X24157857Y48994286D01*
X24086429Y48780001D01*
X24086429Y48422858D01*
X25586429Y50637144D02*
X25586429Y49922858D01*
X24872143Y49851429D01*
X24943571Y49922858D01*
X25015000Y50065715D01*
X25015000Y50422858D01*
X24943571Y50565715D01*
X24872143Y50637144D01*
X24729286Y50708572D01*
X24372143Y50708572D01*
X24229286Y50637144D01*
X24157857Y50565715D01*
X24086429Y50422858D01*
X24086429Y50065715D01*
X24157857Y49922858D01*
X24229286Y49851429D01*
X22975000Y47752143D02*
X23046429Y47609286D01*
X23046429Y47395000D01*
X22975000Y47180715D01*
X22832143Y47037857D01*
X22689286Y46966429D01*
X22403571Y46895000D01*
X22189286Y46895000D01*
X21903571Y46966429D01*
X21760714Y47037857D01*
X21617857Y47180715D01*
X21546429Y47395000D01*
X21546429Y47537857D01*
X21617857Y47752143D01*
X21689286Y47823572D01*
X22189286Y47823572D01*
X22189286Y47537857D01*
X21546429Y48466429D02*
X23046429Y48466429D01*
X21546429Y49323572D01*
X23046429Y49323572D01*
X21546429Y50037858D02*
X23046429Y50037858D01*
X23046429Y50395001D01*
X22975000Y50609286D01*
X22832143Y50752144D01*
X22689286Y50823572D01*
X22403571Y50895001D01*
X22189286Y50895001D01*
X21903571Y50823572D01*
X21760714Y50752144D01*
X21617857Y50609286D01*
X21546429Y50395001D01*
X21546429Y50037858D01*
X20506429Y46680715D02*
X20506429Y47609286D01*
X19935000Y47109286D01*
X19935000Y47323572D01*
X19863571Y47466429D01*
X19792143Y47537858D01*
X19649286Y47609286D01*
X19292143Y47609286D01*
X19149286Y47537858D01*
X19077857Y47466429D01*
X19006429Y47323572D01*
X19006429Y46895000D01*
X19077857Y46752143D01*
X19149286Y46680715D01*
X19149286Y48252143D02*
X19077857Y48323571D01*
X19006429Y48252143D01*
X19077857Y48180714D01*
X19149286Y48252143D01*
X19006429Y48252143D01*
X20506429Y48823572D02*
X20506429Y49752143D01*
X19935000Y49252143D01*
X19935000Y49466429D01*
X19863571Y49609286D01*
X19792143Y49680715D01*
X19649286Y49752143D01*
X19292143Y49752143D01*
X19149286Y49680715D01*
X19077857Y49609286D01*
X19006429Y49466429D01*
X19006429Y49037857D01*
X19077857Y48895000D01*
X19149286Y48823572D01*
X20506429Y50180714D02*
X19006429Y50680714D01*
X20506429Y51180714D01*
X16466429Y48422858D02*
X17966429Y48422858D01*
X17966429Y48780001D01*
X17895000Y48994286D01*
X17752143Y49137144D01*
X17609286Y49208572D01*
X17323571Y49280001D01*
X17109286Y49280001D01*
X16823571Y49208572D01*
X16680714Y49137144D01*
X16537857Y48994286D01*
X16466429Y48780001D01*
X16466429Y48422858D01*
X17466429Y50565715D02*
X16466429Y50565715D01*
X18037857Y50208572D02*
X16966429Y49851429D01*
X16966429Y50780001D01*
X13926429Y48422858D02*
X15426429Y48422858D01*
X15426429Y48780001D01*
X15355000Y48994286D01*
X15212143Y49137144D01*
X15069286Y49208572D01*
X14783571Y49280001D01*
X14569286Y49280001D01*
X14283571Y49208572D01*
X14140714Y49137144D01*
X13997857Y48994286D01*
X13926429Y48780001D01*
X13926429Y48422858D01*
X15426429Y49780001D02*
X15426429Y50708572D01*
X14855000Y50208572D01*
X14855000Y50422858D01*
X14783571Y50565715D01*
X14712143Y50637144D01*
X14569286Y50708572D01*
X14212143Y50708572D01*
X14069286Y50637144D01*
X13997857Y50565715D01*
X13926429Y50422858D01*
X13926429Y49994286D01*
X13997857Y49851429D01*
X14069286Y49780001D01*
X11386429Y48422858D02*
X12886429Y48422858D01*
X12886429Y48780001D01*
X12815000Y48994286D01*
X12672143Y49137144D01*
X12529286Y49208572D01*
X12243571Y49280001D01*
X12029286Y49280001D01*
X11743571Y49208572D01*
X11600714Y49137144D01*
X11457857Y48994286D01*
X11386429Y48780001D01*
X11386429Y48422858D01*
X12743571Y49851429D02*
X12815000Y49922858D01*
X12886429Y50065715D01*
X12886429Y50422858D01*
X12815000Y50565715D01*
X12743571Y50637144D01*
X12600714Y50708572D01*
X12457857Y50708572D01*
X12243571Y50637144D01*
X11386429Y49780001D01*
X11386429Y50708572D01*
X8846429Y48422858D02*
X10346429Y48422858D01*
X10346429Y48780001D01*
X10275000Y48994286D01*
X10132143Y49137144D01*
X9989286Y49208572D01*
X9703571Y49280001D01*
X9489286Y49280001D01*
X9203571Y49208572D01*
X9060714Y49137144D01*
X8917857Y48994286D01*
X8846429Y48780001D01*
X8846429Y48422858D01*
X8846429Y50708572D02*
X8846429Y49851429D01*
X8846429Y50280001D02*
X10346429Y50280001D01*
X10132143Y50137144D01*
X9989286Y49994286D01*
X9917857Y49851429D01*
X6306429Y48422858D02*
X7806429Y48422858D01*
X7806429Y48780001D01*
X7735000Y48994286D01*
X7592143Y49137144D01*
X7449286Y49208572D01*
X7163571Y49280001D01*
X6949286Y49280001D01*
X6663571Y49208572D01*
X6520714Y49137144D01*
X6377857Y48994286D01*
X6306429Y48780001D01*
X6306429Y48422858D01*
X7806429Y50208572D02*
X7806429Y50351429D01*
X7735000Y50494286D01*
X7663571Y50565715D01*
X7520714Y50637144D01*
X7235000Y50708572D01*
X6877857Y50708572D01*
X6592143Y50637144D01*
X6449286Y50565715D01*
X6377857Y50494286D01*
X6306429Y50351429D01*
X6306429Y50208572D01*
X6377857Y50065715D01*
X6449286Y49994286D01*
X6592143Y49922858D01*
X6877857Y49851429D01*
X7235000Y49851429D01*
X7520714Y49922858D01*
X7663571Y49994286D01*
X7735000Y50065715D01*
X7806429Y50208572D01*
X31115000Y71120000D02*
X31115000Y90805000D01*
X31115000Y90805000D02*
X31115000Y99060000D01*
X31115000Y99060000D02*
X18415000Y99060000D01*
X18415000Y99060000D02*
X18415000Y71120000D01*
X18415000Y73660000D02*
G75*
G03X18415000Y73660000I-635000J0D01*
G01*
X31115000Y71120000D02*
X18415000Y71120000D01*
X18415000Y71120000D02*
X18415000Y73660000D01*
X18415000Y73660000D02*
X31115000Y73660000D01*
X31115000Y73660000D02*
X31115000Y71120000D01*
D13*
X33822398Y71607499D02*
X33822398Y73337239D01*
X33408257Y73337239D01*
X33304722Y73254870D01*
X33252954Y73172501D01*
X33201186Y73007764D01*
X33201186Y72760659D01*
X33252954Y72595921D01*
X33304722Y72513553D01*
X33408257Y72431184D01*
X33822398Y72431184D01*
X32838813Y73337239D02*
X32165834Y73337239D01*
X32528207Y72678290D01*
X32372905Y72678290D01*
X32269369Y72595921D01*
X32217602Y72513553D01*
X32165834Y72348816D01*
X32165834Y71936973D01*
X32217602Y71772236D01*
X32269369Y71689867D01*
X32372905Y71607499D01*
X32683510Y71607499D01*
X32787046Y71689867D01*
X32838813Y71772236D01*
D14*
X29633333Y77107143D02*
X29488190Y77034571D01*
X29246286Y77034571D01*
X29149524Y77107143D01*
X29101143Y77179714D01*
X29052762Y77324857D01*
X29052762Y77470000D01*
X29101143Y77615143D01*
X29149524Y77687714D01*
X29246286Y77760286D01*
X29439809Y77832857D01*
X29536571Y77905429D01*
X29584952Y77978000D01*
X29633333Y78123143D01*
X29633333Y78268286D01*
X29584952Y78413429D01*
X29536571Y78486000D01*
X29439809Y78558571D01*
X29197905Y78558571D01*
X29052762Y78486000D01*
X28617333Y77832857D02*
X28278667Y77832857D01*
X28133524Y77034571D02*
X28617333Y77034571D01*
X28617333Y78558571D01*
X28133524Y78558571D01*
X27117524Y77034571D02*
X27456190Y77760286D01*
X27698095Y77034571D02*
X27698095Y78558571D01*
X27311048Y78558571D01*
X27214286Y78486000D01*
X27165905Y78413429D01*
X27117524Y78268286D01*
X27117524Y78050571D01*
X27165905Y77905429D01*
X27214286Y77832857D01*
X27311048Y77760286D01*
X27698095Y77760286D01*
X26682095Y77034571D02*
X26682095Y78558571D01*
X26246666Y77470000D02*
X25762857Y77470000D01*
X26343428Y77034571D02*
X26004761Y78558571D01*
X25666095Y77034571D01*
X24843619Y77034571D02*
X25327428Y77034571D01*
X25327428Y78558571D01*
X24746857Y76889429D02*
X23972762Y76889429D01*
X23730857Y77034571D02*
X23730857Y78558571D01*
X23730857Y77832857D02*
X23150286Y77832857D01*
X23150286Y77034571D02*
X23150286Y78558571D01*
X22085905Y77179714D02*
X22134286Y77107143D01*
X22279429Y77034571D01*
X22376191Y77034571D01*
X22521333Y77107143D01*
X22618095Y77252286D01*
X22666476Y77397429D01*
X22714857Y77687714D01*
X22714857Y77905429D01*
X22666476Y78195714D01*
X22618095Y78340857D01*
X22521333Y78486000D01*
X22376191Y78558571D01*
X22279429Y78558571D01*
X22134286Y78486000D01*
X22085905Y78413429D01*
X21118286Y77034571D02*
X21698857Y77034571D01*
X21408571Y77034571D02*
X21408571Y78558571D01*
X21505333Y78340857D01*
X21602095Y78195714D01*
X21698857Y78123143D01*
X20731238Y78413429D02*
X20682857Y78486000D01*
X20586095Y78558571D01*
X20344191Y78558571D01*
X20247429Y78486000D01*
X20199048Y78413429D01*
X20150667Y78268286D01*
X20150667Y78123143D01*
X20199048Y77905429D01*
X20779619Y77034571D01*
X20150667Y77034571D01*
D15*
X29297381Y70405476D02*
X30297381Y70072143D01*
X29297381Y69738809D01*
X30249762Y68976904D02*
X30297381Y69072142D01*
X30297381Y69262619D01*
X30249762Y69357857D01*
X30202143Y69405476D01*
X30106905Y69453095D01*
X29821190Y69453095D01*
X29725952Y69405476D01*
X29678333Y69357857D01*
X29630714Y69262619D01*
X29630714Y69072142D01*
X29678333Y68976904D01*
X30249762Y68119761D02*
X30297381Y68214999D01*
X30297381Y68405476D01*
X30249762Y68500714D01*
X30202143Y68548333D01*
X30106905Y68595952D01*
X29821190Y68595952D01*
X29725952Y68548333D01*
X29678333Y68500714D01*
X29630714Y68405476D01*
X29630714Y68214999D01*
X29678333Y68119761D01*
X26805000Y69976904D02*
X26757381Y70072142D01*
X26757381Y70214999D01*
X26805000Y70357857D01*
X26900238Y70453095D01*
X26995476Y70500714D01*
X27185952Y70548333D01*
X27328810Y70548333D01*
X27519286Y70500714D01*
X27614524Y70453095D01*
X27709762Y70357857D01*
X27757381Y70214999D01*
X27757381Y70119761D01*
X27709762Y69976904D01*
X27662143Y69929285D01*
X27328810Y69929285D01*
X27328810Y70119761D01*
X27757381Y69500714D02*
X26757381Y69500714D01*
X27757381Y68929285D01*
X26757381Y68929285D01*
X27757381Y68453095D02*
X26757381Y68453095D01*
X26757381Y68215000D01*
X26805000Y68072142D01*
X26900238Y67976904D01*
X26995476Y67929285D01*
X27185952Y67881666D01*
X27328810Y67881666D01*
X27519286Y67929285D01*
X27614524Y67976904D01*
X27709762Y68072142D01*
X27757381Y68215000D01*
X27757381Y68453095D01*
X25217381Y69945238D02*
X24741190Y70278572D01*
X25217381Y70516667D02*
X24217381Y70516667D01*
X24217381Y70135714D01*
X24265000Y70040476D01*
X24312619Y69992857D01*
X24407857Y69945238D01*
X24550714Y69945238D01*
X24645952Y69992857D01*
X24693571Y70040476D01*
X24741190Y70135714D01*
X24741190Y70516667D01*
X25217381Y69611905D02*
X24550714Y69088095D01*
X24550714Y69611905D02*
X25217381Y69088095D01*
X21677381Y70540476D02*
X21677381Y69969047D01*
X22677381Y70254762D02*
X21677381Y70254762D01*
X22677381Y69730952D02*
X22010714Y69207142D01*
X22010714Y69730952D02*
X22677381Y69207142D01*
X20089762Y70334048D02*
X20137381Y70191191D01*
X20137381Y69953095D01*
X20089762Y69857857D01*
X20042143Y69810238D01*
X19946905Y69762619D01*
X19851667Y69762619D01*
X19756429Y69810238D01*
X19708810Y69857857D01*
X19661190Y69953095D01*
X19613571Y70143572D01*
X19565952Y70238810D01*
X19518333Y70286429D01*
X19423095Y70334048D01*
X19327857Y70334048D01*
X19232619Y70286429D01*
X19185000Y70238810D01*
X19137381Y70143572D01*
X19137381Y69905476D01*
X19185000Y69762619D01*
X19613571Y69334048D02*
X19613571Y69000714D01*
X20137381Y68857857D02*
X20137381Y69334048D01*
X19137381Y69334048D01*
X19137381Y68857857D01*
X19137381Y68572143D02*
X19137381Y68000714D01*
X20137381Y68286429D02*
X19137381Y68286429D01*
D16*
X9555238Y4311952D02*
X9555238Y6851952D01*
X10522857Y6851952D01*
X10764762Y6731000D01*
X10885714Y6610048D01*
X11006666Y6368143D01*
X11006666Y6005286D01*
X10885714Y5763381D01*
X10764762Y5642429D01*
X10522857Y5521476D01*
X9555238Y5521476D01*
X11853333Y6851952D02*
X13546666Y6851952D01*
X12458095Y4311952D01*
X8605762Y1009952D02*
X8605762Y3549952D01*
X9573381Y3549952D01*
X9815286Y3429000D01*
X9936238Y3308048D01*
X10057190Y3066143D01*
X10057190Y2703286D01*
X9936238Y2461381D01*
X9815286Y2340429D01*
X9573381Y2219476D01*
X8605762Y2219476D01*
X12597190Y1251857D02*
X12476238Y1130905D01*
X12113381Y1009952D01*
X11871476Y1009952D01*
X11508619Y1130905D01*
X11266714Y1372810D01*
X11145762Y1614714D01*
X11024810Y2098524D01*
X11024810Y2461381D01*
X11145762Y2945190D01*
X11266714Y3187095D01*
X11508619Y3429000D01*
X11871476Y3549952D01*
X12113381Y3549952D01*
X12476238Y3429000D01*
X12597190Y3308048D01*
X14532429Y2340429D02*
X14895286Y2219476D01*
X15016238Y2098524D01*
X15137190Y1856619D01*
X15137190Y1493762D01*
X15016238Y1251857D01*
X14895286Y1130905D01*
X14653381Y1009952D01*
X13685762Y1009952D01*
X13685762Y3549952D01*
X14532429Y3549952D01*
X14774333Y3429000D01*
X14895286Y3308048D01*
X15016238Y3066143D01*
X15016238Y2824238D01*
X14895286Y2582333D01*
X14774333Y2461381D01*
X14532429Y2340429D01*
X13685762Y2340429D01*
D13*
X19354074Y60685499D02*
X19354074Y62415239D01*
X18939933Y62415239D01*
X18836398Y62332870D01*
X18784630Y62250501D01*
X18732862Y62085764D01*
X18732862Y61838659D01*
X18784630Y61673921D01*
X18836398Y61591553D01*
X18939933Y61509184D01*
X19354074Y61509184D01*
X17697510Y60685499D02*
X18318722Y60685499D01*
X18008116Y60685499D02*
X18008116Y62415239D01*
X18111651Y62168133D01*
X18215186Y62003396D01*
X18318722Y61921027D01*
X16765693Y61838659D02*
X16765693Y60685499D01*
X17024531Y62497607D02*
X17283370Y61262079D01*
X16610390Y61262079D01*
D15*
X30225667Y63047619D02*
X30225667Y64047619D01*
X29797096Y63952381D02*
X29749477Y64000000D01*
X29654239Y64047619D01*
X29416143Y64047619D01*
X29320905Y64000000D01*
X29273286Y63952381D01*
X29225667Y63857143D01*
X29225667Y63761905D01*
X29273286Y63619048D01*
X29844715Y63047619D01*
X29225667Y63047619D01*
X28225667Y63142857D02*
X28273286Y63095238D01*
X28416143Y63047619D01*
X28511381Y63047619D01*
X28654239Y63095238D01*
X28749477Y63190476D01*
X28797096Y63285714D01*
X28844715Y63476190D01*
X28844715Y63619048D01*
X28797096Y63809524D01*
X28749477Y63904762D01*
X28654239Y64000000D01*
X28511381Y64047619D01*
X28416143Y64047619D01*
X28273286Y64000000D01*
X28225667Y63952381D01*
X28035191Y62952381D02*
X27273286Y62952381D01*
X27035191Y63571429D02*
X26701857Y63571429D01*
X26559000Y63047619D02*
X27035191Y63047619D01*
X27035191Y64047619D01*
X26559000Y64047619D01*
X26225667Y64047619D02*
X25559000Y63047619D01*
X25559000Y64047619D02*
X26225667Y63047619D01*
X25320905Y64047619D02*
X24749476Y64047619D01*
X25035191Y63047619D02*
X25035191Y64047619D01*
M02*
